<?xml version="1.0" encoding="UTF-8"?>
<svg id="Layer_1" xmlns="http://www.w3.org/2000/svg" xmlns:xlink="http://www.w3.org/1999/xlink" version="1.1" viewBox="0 0 4858.14 3638.38">
  <!-- Generator: Adobe Illustrator 30.1.0, SVG Export Plug-In . SVG Version: 2.1.1 Build 136)  -->
  <defs>
    <style>
      .st0 {
        fill: #f0e6ff;
      }

      .st1 {
        fill: #ffe0f0;
      }

      .st2 {
        fill: #ce548e;
      }

      .st3 {
        filter: url(#outer-glow-1);
      }

      .st4 {
        fill: #ff8080;
      }

      .st5 {
        opacity: .3;
      }

      .st5, .st6 {
        fill: #fff;
      }

      .st7 {
        fill: #ff9dc6;
        opacity: .35;
      }

      .st8 {
        fill: url(#_Безымянный_градиент_161);
      }

      .st9 {
        fill: url(#_Безымянный_градиент_166);
      }

      .st10 {
        fill: url(#_Безымянный_градиент_146);
      }

      .st11 {
        fill: url(#_Безымянный_градиент_103);
      }

      .st12 {
        fill: url(#_Безымянный_градиент_113);
      }

      .st13 {
        fill: url(#_Безымянный_градиент_188);
      }

      .st14 {
        fill: url(#_Безымянный_градиент_156);
      }

      .st15 {
        fill: url(#_Безымянный_градиент_108);
      }

      .st16 {
        fill: url(#_Безымянный_градиент_176);
      }

      .st17 {
        fill: url(#_Безымянный_градиент_171);
      }

      .st18 {
        fill: url(#_Безымянный_градиент_326);
      }

      .st19 {
        fill: url(#_Безымянный_градиент_306);
      }

      .st20 {
        fill: #fa508e;
      }

      .st21 {
        fill: url(#_Новый_образец_градиентной_зал_3);
      }

      .st22 {
        fill: url(#_Новый_образец_градиентной_зал_2);
      }

      .st23 {
        fill: #000072;
      }

      .st24 {
        fill: #e46fa7;
      }

      .st25 {
        opacity: .75;
      }

      .st26 {
        opacity: .35;
      }

      .st27 {
        opacity: .5;
      }

      .st28 {
        opacity: .3;
      }

      .st29 {
        opacity: .25;
      }

      .st30 {
        fill: url(#_Безымянный_градиент_37);
      }

      .st31 {
        fill: url(#_Безымянный_градиент_98);
      }

      .st32 {
        fill: url(#_Безымянный_градиент_70);
      }

      .st33 {
        fill: url(#_Безымянный_градиент_65);
      }

      .st34 {
        fill: url(#_Безымянный_градиент_93);
      }

      .st35 {
        fill: url(#_Безымянный_градиент_88);
      }

      .st36 {
        fill: #f08eb9;
      }

      .st37 {
        fill: #e57daf;
      }
    </style>
    <linearGradient id="_Безымянный_градиент_98" data-name="Безымянный градиент 98" x1="3683.94" y1="2757.84" x2="4084.15" y2="2757.84" gradientUnits="userSpaceOnUse">
      <stop offset="0" stop-color="#ffb3d4"/>
      <stop offset="1" stop-color="#ff8cb8"/>
    </linearGradient>
    <linearGradient id="_Безымянный_градиент_103" data-name="Безымянный градиент 103" x1="2891.03" y1="3110.18" x2="3324.96" y2="3110.18" gradientUnits="userSpaceOnUse">
      <stop offset="0" stop-color="#ffb3d4"/>
      <stop offset="1" stop-color="#ff8cb8"/>
    </linearGradient>
    <linearGradient id="_Безымянный_градиент_108" data-name="Безымянный градиент 108" x1="3514.02" y1="3099.36" x2="4035.37" y2="3099.36" gradientUnits="userSpaceOnUse">
      <stop offset="0" stop-color="#ffb3d4"/>
      <stop offset="1" stop-color="#ff8cb8"/>
    </linearGradient>
    <linearGradient id="_Безымянный_градиент_37" data-name="Безымянный градиент 37" x1="2891.03" y1="2574.9" x2="3905.21" y2="2574.9" gradientUnits="userSpaceOnUse">
      <stop offset="0" stop-color="#ffb3d4"/>
      <stop offset="1" stop-color="#ff8cb8"/>
    </linearGradient>
    <linearGradient id="_Безымянный_градиент_93" data-name="Безымянный градиент 93" x1="3168.24" y1="904.17" x2="3865.69" y2="904.17" gradientUnits="userSpaceOnUse">
      <stop offset="0" stop-color="#ffb3d4"/>
      <stop offset="1" stop-color="#ff8cb8"/>
    </linearGradient>
    <linearGradient id="_Безымянный_градиент_70" data-name="Безымянный градиент 70" x1="2654.24" y1="1615.04" x2="4678.52" y2="1615.04" gradientUnits="userSpaceOnUse">
      <stop offset="0" stop-color="#ffb3d4"/>
      <stop offset="1" stop-color="#ff8cb8"/>
    </linearGradient>
    <linearGradient id="_Безымянный_градиент_88" data-name="Безымянный градиент 88" x1="3117.66" y1="1944.7" x2="3281.37" y2="1944.7" gradientUnits="userSpaceOnUse">
      <stop offset="0" stop-color="#ffb3d4"/>
      <stop offset="1" stop-color="#ffa7cc"/>
    </linearGradient>
    <linearGradient id="_Безымянный_градиент_166" data-name="Безымянный градиент 166" x1="722.07" y1="2752.05" x2="1122.28" y2="2752.05" gradientUnits="userSpaceOnUse">
      <stop offset="0" stop-color="#e8d4ff"/>
      <stop offset="1" stop-color="#d4b3ff"/>
    </linearGradient>
    <linearGradient id="_Безымянный_градиент_156" data-name="Безымянный градиент 156" x1="1481.25" y1="3104.39" x2="1915.19" y2="3104.39" gradientUnits="userSpaceOnUse">
      <stop offset="0" stop-color="#e8d4ff"/>
      <stop offset="1" stop-color="#d4b3ff"/>
    </linearGradient>
    <linearGradient id="_Безымянный_градиент_161" data-name="Безымянный градиент 161" x1="770.85" y1="3093.57" x2="1292.19" y2="3093.57" gradientUnits="userSpaceOnUse">
      <stop offset="0" stop-color="#e8d4ff"/>
      <stop offset="1" stop-color="#d4b3ff"/>
    </linearGradient>
    <linearGradient id="_Безымянный_градиент_146" data-name="Безымянный градиент 146" x1="901.01" y1="2569.11" x2="1915.19" y2="2569.11" gradientUnits="userSpaceOnUse">
      <stop offset="0" stop-color="#e8d4ff"/>
      <stop offset="1" stop-color="#d4b3ff"/>
    </linearGradient>
    <linearGradient id="_Новый_образец_градиентной_зал_2" data-name="Новый образец градиентной зал 2" x1="940.53" y1="898.38" x2="1637.98" y2="898.38" gradientUnits="userSpaceOnUse">
      <stop offset="0" stop-color="#e8d4ff"/>
      <stop offset="1" stop-color="#d4b3ff"/>
    </linearGradient>
    <linearGradient id="_Безымянный_градиент_176" data-name="Безымянный градиент 176" x1="127.69" y1="1609.25" x2="2151.98" y2="1609.25" gradientUnits="userSpaceOnUse">
      <stop offset="0" stop-color="#e8d4ff"/>
      <stop offset="1" stop-color="#d4b3ff"/>
    </linearGradient>
    <linearGradient id="_Новый_образец_градиентной_зал_3" data-name="Новый образец градиентной зал 3" x1="1631.3" y1="2004.24" x2="1565.18" y2="1889.71" gradientUnits="userSpaceOnUse">
      <stop offset="0" stop-color="#dfc5ff"/>
      <stop offset="1" stop-color="#d4b3ff"/>
    </linearGradient>
    <filter id="outer-glow-1" x="1307" y="1621" width="2185" height="2017" filterUnits="userSpaceOnUse">
      <feOffset dx="0" dy="0"/>
      <feGaussianBlur result="blur" stdDeviation="144"/>
      <feFlood flood-color="#ff1a77" flood-opacity=".75"/>
      <feComposite in2="blur" operator="in"/>
      <feComposite in="SourceGraphic"/>
    </filter>
    <linearGradient id="_Безымянный_градиент_306" data-name="Безымянный градиент 306" x1="2399.71" y1="3205.28" x2="2399.71" y2="2053.19" gradientUnits="userSpaceOnUse">
      <stop offset="0" stop-color="#ff6b9d"/>
      <stop offset=".45" stop-color="#ff4d7d"/>
      <stop offset="1" stop-color="#ff1f68"/>
    </linearGradient>
    <linearGradient id="_Безымянный_градиент_326" data-name="Безымянный градиент 326" x1="2483.74" y1="2257.39" x2="2923.42" y2="2257.39" gradientUnits="userSpaceOnUse">
      <stop offset="0" stop-color="#ffb3d4"/>
      <stop offset="1" stop-color="#ff8cb8"/>
    </linearGradient>
    <linearGradient id="_Безымянный_градиент_171" data-name="Безымянный градиент 171" x1="1981.8" y1="2096.81" x2="2283.15" y2="2096.81" gradientUnits="userSpaceOnUse">
      <stop offset="0" stop-color="#e8d4ff"/>
      <stop offset="1" stop-color="#d4b3ff"/>
    </linearGradient>
    <linearGradient id="_Безымянный_градиент_188" data-name="Безымянный градиент 188" x1="1278.72" y1="2399.5" x2="1942.48" y2="2399.5" gradientUnits="userSpaceOnUse">
      <stop offset="0" stop-color="#dfc5ff"/>
      <stop offset="1" stop-color="#d4b3ff"/>
    </linearGradient>
    <linearGradient id="_Безымянный_градиент_113" data-name="Безымянный градиент 113" x1="2545.07" y1="2102.6" x2="2846.42" y2="2102.6" gradientUnits="userSpaceOnUse">
      <stop offset="0" stop-color="#ffb3d4"/>
      <stop offset="1" stop-color="#ff8cb8"/>
    </linearGradient>
    <linearGradient id="_Безымянный_градиент_65" data-name="Безымянный градиент 65" x1="3117.56" y1="2405.29" x2="3781.32" y2="2405.29" gradientUnits="userSpaceOnUse">
      <stop offset="0" stop-color="#ffb3d4"/>
      <stop offset=".53" stop-color="#ff99c1"/>
    </linearGradient>
  </defs>
  <g>
    <g>
      <path class="st31" d="M4083.54,2698.14c11.6,125.15-145.02,242.64-235.6,242.64s-164-73.43-164-164,98.2-101.76,164-164c80.61-76.25,224.7-32.14,235.6,85.36Z"/>
      <g class="st28">
        <path class="st23" d="M3847.95,2940.78c-90.6,0-164.02-73.42-164.02-164.02,0-16.54,3.29-30.48,9.08-42.52,28.16,49.75,92.24-64.25,153.52-64.25,38.54,0,84.35,92.93,129.56,103.97,42.65,10.42,87.69-21.17,87.53-135.47,10.7,16.91,17.83,36.92,19.92,59.66,11.58,125.11-145.03,242.63-235.59,242.63Z"/>
      </g>
      <path class="st23" d="M3847.94,2956.6c57.12,0,134.33-40.95,187.78-99.57,45.91-50.36,68.48-107.3,63.57-160.34-5.44-58.65-41.87-106.16-97.45-127.11-57.89-21.81-121.02-9.66-164.76,31.72-20.95,19.82-45.89,34.42-70,48.54-48.65,28.49-98.95,57.95-98.95,126.94,0,99.15,80.66,179.82,179.82,179.82ZM3944.02,2590.56c15.53,0,31.31,2.83,46.66,8.61,43.99,16.58,72.82,54.12,77.11,100.43h0c4.09,44.07-15.6,92.41-55.44,136.11-47.14,51.71-116.28,89.25-164.4,89.25-81.71,0-148.19-66.48-148.19-148.19,0-50.86,36.76-72.39,83.3-99.65,25.65-15.02,52.17-30.55,75.75-52.86,23.36-22.09,53.74-33.71,85.21-33.71ZM4083.54,2698.14h-.05.05Z"/>
      <path class="st11" d="M2896.58,3155.48c30.68,91.82,279.44,82.41,349.43,51.48,51.72-22.82,70.27-68.17,76.31-105.46,5.26-32.58,1.03-59,1.03-59l-252.63-50.81c-46.42,9.57-95.45,25.9-130.53,50.61-38.35,26.97-60.06,63.98-43.61,113.17Z"/>
      <path class="st23" d="M3098.69,3244.52c62.39,0,122.22-9.19,153.73-23.1,85.4-37.74,93.96-135.17,86.56-181.42-1.38-8.63-9.52-14.44-18.12-13.12-8.62,1.38-14.5,9.49-13.12,18.12.7,4.45,16.18,110.23-68.11,147.48-52.44,23.18-207.19,31.48-284.66-2.75-23.55-10.41-38.15-23.62-43.38-39.27-7.56-22.63-6.12-42.53,4.42-60.84,20.68-35.93,78.24-65.97,157.93-82.43,8.55-1.77,14.05-10.13,12.29-18.69-1.77-8.56-10.13-14.06-18.69-12.29-52.03,10.75-144.46,37.72-178.94,97.63-15.1,26.24-17.46,55.39-7,86.66,8.17,24.44,28.56,44.02,60.6,58.17,41.5,18.34,100.05,25.86,156.51,25.86Z"/>
      <path class="st23" d="M3066.59,3144.32c-8.46,2.38-16.71,5.81-24.59,10.33-7.82,4.57-15.44,10.29-21.44,18.44-5.98,8.02-9.71,19.17-8.82,30.29.78,11.09,5.02,21.23,10.14,30l.23.4c3.9,6.68,12.47,8.92,19.15,5.02,6.67-3.9,8.92-12.47,5.02-19.15-.64-1.1-1.46-2.12-2.32-2.97-5.24-5.1-9.5-10.7-11.76-16.81-2.27-6.06-2.24-12.92.4-19.97,2.65-7.03,7.66-13.78,13.59-19.76,5.98-5.97,12.87-11.35,20.4-15.83Z"/>
      <path class="st23" d="M2986.63,3102.86c-9.91,1.75-19.66,5.32-28.67,10.5-8.99,5.2-17.33,12.06-23.95,20.83-6.61,8.71-11.31,19.56-12.59,31.19-1.36,11.64.7,23.56,4.69,34.42v.03c2.28,6.18,9.13,9.35,15.31,7.08s9.35-9.12,7.08-15.3c-.26-.72-.63-1.46-1.01-2.09-4.43-7.28-7.55-15.21-8.29-23.62-.78-8.39.92-17.22,4.89-25.47,8.02-16.54,23.9-30.26,42.53-37.59Z"/>
      <path class="st15" d="M3514.02,2997.28c9.65,41.08,21.71,74.38,37.8,102.18,28.15,48.56,68.6,80.31,130.17,107.51,70.03,30.92,318.74,40.33,349.43-51.48,19.69-58.88-36.85-110.83-114.23-145.08-46.5-20.64-100.48-34.84-149.98-40.33l-253.18,27.2Z"/>
      <path class="st23" d="M3829.34,3244.52c56.46,0,115.01-7.52,156.51-25.86,32.04-14.16,52.42-33.73,60.6-58.17,9.02-26.98,5.03-54.95-11.55-80.88-43.24-67.64-166.51-114.21-265.93-125.26-8.66-.99-16.5,5.29-17.47,13.97-.96,8.68,5.29,16.5,13.97,17.47,89.7,9.97,205.28,52.21,242.77,110.86,11.57,18.1,14.25,35.7,8.2,53.81-5.23,15.65-19.83,28.86-43.38,39.27-77.48,34.24-232.22,25.93-284.66,2.75-93.66-41.39-133.77-91.56-158.96-198.82-2-8.5-10.52-13.78-19.01-11.78-8.5,2-13.78,10.51-11.78,19.01,27.19,115.76,75.15,175.53,176.97,220.52,31.5,13.92,91.35,23.11,153.73,23.11Z"/>
      <path class="st23" d="M3861.65,3122.62c9.2,5.47,17.55,12.19,24.76,19.67,7.17,7.5,13.05,16.01,16.44,24.96,3.51,8.95,3.96,18.21,2.08,26.78-1.98,8.61-6.28,16.66-11.83,24.09-4.6,6.17-3.33,14.9,2.84,19.5,6.17,4.6,14.9,3.33,19.5-2.84.6-.81,1.1-1.66,1.51-2.53l.14-.32c4.98-11.06,8.49-23.38,8.52-36.05-.02-12.67-3.84-25.19-10.49-35.04-6.55-9.95-15.12-17.68-24.27-23.86-9.2-6.13-19.01-10.97-29.2-14.36Z"/>
      <path class="st23" d="M3942.14,3085.81c10.79,4.22,19.98,11.25,27.88,19.22,7.87,8.02,14.43,17.18,19.27,26.93,4.82,9.73,7.87,20.15,8.19,30.2.37,10.06-2.13,19.48-6.96,27.39-3.44,5.61-1.67,12.95,3.94,16.39,5.62,3.44,12.95,1.67,16.39-3.95.35-.58.65-1.17.89-1.78l.16-.4c5.12-12.94,6-27.24,3.22-39.99-2.72-12.82-8.53-24.21-15.72-34.06-7.23-9.86-15.91-18.32-25.54-25.25-9.63-6.86-20.35-12.39-31.72-14.7Z"/>
      <path class="st6" d="M3176.52,2059.31s-232.54,76.89-360.85-24.56v196.71s83.83,93.9,231.21,90.74c110.4-2.36,176.5-54.86,176.5-54.86"/>
      <path class="st23" d="M3039.54,2338.09c2.55,0,5.1-.02,7.69-.08,114.41-2.45,183.13-56.02,186-58.29,6.84-5.44,7.98-15.39,2.55-22.23-5.43-6.84-15.38-7.98-22.22-2.55-.6.47-63.78,49.23-167,51.44-2.28.04-4.55.07-6.8.07-116.58,0-190.68-64.4-208.26-81.46v-160.39c135.52,79.13,340.77,12.78,350,9.72,8.29-2.74,12.79-11.68,10.05-19.97-2.74-8.3-11.69-12.8-19.98-10.06-2.25.75-226.04,72.97-346.08-21.95-4.76-3.76-11.25-4.47-16.7-1.83-5.46,2.65-8.92,8.17-8.92,14.24v196.71c0,3.89,1.43,7.64,4.02,10.53,3.56,3.99,87.54,96.1,235.66,96.1Z"/>
      <g class="st28">
        <path class="st23" d="M3767.21,2970.07l-253.18,27.2c9.65,41.08,21.71,74.38,37.8,102.18,145.63,2.57,293.04-1.26,365.36-89.05-46.5-20.64-100.48-34.83-149.98-40.33Z"/>
      </g>
      <g class="st28">
        <path class="st23" d="M2940.2,3042.31c37.72,35.82,87.07,61.29,150.57,72.83,80.58,14.67,119.45-4.75,231.55-13.64,5.26-32.58,1.03-59,1.03-59l-252.63-50.81c-46.42,9.57-95.45,25.9-130.53,50.61Z"/>
      </g>
      <path class="st30" d="M3122.21,3076.4c92.49,16.8,123.77-16.33,309.61-15.86,208.27.55,473.11,37.52,473.39-212.81.2-202.14-150.69-348.56-221.35-458.8-27.05-42.23-48.52-82.36-65.44-118.58-46.46-99.29-58.84-168.65-58.84-168.65l-519.93-33.06s-20.13,48.4-45.59,124.04c-15.97,47.45-34,105.61-50.49,169.32-17.91,69.04-33.93,144.56-43.42,219.89-28.86,228.11,2.02,454.53,222.07,494.51Z"/>
      <g class="st28">
        <path class="st23" d="M2900.14,2581.89c140.65-13.84,244.25,80.71,422.58,86.24,209.33,6.52,204.79-206.25,204.79-206.25l-583.95-99.88c-17.91,69.04-33.93,144.57-43.42,219.89Z"/>
      </g>
      <g class="st28">
        <path class="st23" d="M2899.79,2828.63c21.43,125.27,85.09,222.82,222.42,247.77,92.49,16.8,123.77-16.33,309.61-15.86,208.27.55,473.11,37.52,473.39-212.81.04-59.59-13.01-114.35-33.3-164.73,3.92,22.58,6.05,45.91,6.01,70.07-.28,250.34-265.12,213.37-473.39,212.81-185.84-.48-217.12,32.66-309.61,15.86-100.2-18.19-161.17-75.05-195.14-153.11Z"/>
      </g>
      <path class="st23" d="M3016.95,3028.7c-15.04-14.77-28.51-30.22-40.12-46.85-11.54-16.66-21.47-34.25-29.7-52.7-16.67-36.85-26.56-76.84-32.82-117.58-12.34-81.85-7.29-166.65,4.52-249.78,11.96-83.34,30.99-165.84,54-247.18,11.53-40.67,24.11-81.07,37.67-121.14,13.57-39.97,28.03-80.01,43.76-118.76l-15.61,9.71,519.91,33.06-14.56-13.01c2.26,11.43,4.78,21.62,7.67,32.17,2.84,10.45,5.94,20.78,9.23,31.04,6.67,20.48,13.88,40.75,22.01,60.62,15.96,39.89,34.84,78.5,55.77,115.91,5.4,9.26,10.54,18.67,16.15,27.8l16.96,27.34c11.82,18.21,24.34,35.55,36.94,52.66,25.25,34.14,50.71,67.48,74.13,101.99,23.43,34.45,44.94,69.98,62.31,107.26,17.41,37.22,30.66,76.18,37.94,116.21,6.97,39.95,7.35,81.52.85,120.12-3.47,19.29-8.82,37.93-16.97,55.46-7.97,17.69-19.02,33.95-32.21,50.32l-.08.1c-1.87,2.32-1.5,5.71.82,7.58,1.67,1.34,3.89,1.53,5.7.67,20.09-9.58,37.74-25.4,50.46-44.57,6.59-9.47,11.7-19.88,15.84-30.54,4.38-10.64,7.16-21.69,9.62-32.75,4.34-22.2,5.24-44.68,4.23-66.59-.87-21.95-3.24-43.81-7.12-65.38-7.84-43.14-22.06-84.77-40.42-124.02-18.33-39.32-40.75-76.28-64.81-111.64-24.03-35.4-49.86-69.21-74.83-102.98-12.44-16.9-24.64-33.82-35.82-51.04l-16.43-26.49c-5.45-8.85-10.43-17.99-15.66-26.97-20.3-36.28-38.61-73.72-54.03-112.27-7.86-19.21-14.81-38.77-21.22-58.44-3.16-9.85-6.13-19.75-8.83-29.68-2.71-9.81-5.21-20.15-7.06-29.43l-.06-.3c-1.43-7.19-7.52-12.26-14.51-12.7l-519.91-33.06h-.14c-6.88-.45-13,3.66-15.47,9.71-16.28,40.11-30.72,80.17-44.51,120.77-13.73,40.55-26.46,81.44-38.14,122.64-23.31,82.41-42.66,166.14-54.89,251.33-6.09,42.59-10.23,85.54-11.86,128.78-.91,21.61-.91,43.31-.17,65.04.77,21.73,2.25,43.52,5.24,65.24,6.03,43.34,17.53,86.79,38.2,126.57,20.52,39.53,52.21,74.91,91.97,94.39,2.65,1.3,5.84.2,7.14-2.44,1.03-2.12.54-4.58-1.05-6.15l-.04-.05Z"/>
      <path class="st23" d="M3606.4,3057.59c-28.16-4.22-56.15-6.74-84.29-8.89-28.13-2-56.38-3.13-84.82-3.02-14.22.05-28.48.36-42.72,1.21-7.12.4-14.24.79-21.36,1.33-7.11.62-14.22,1.33-21.32,2.1-28.38,3.18-56.64,8.03-84.17,15.6h-.05c-2.68.75-4.26,3.53-3.52,6.21.62,2.25,2.68,3.72,4.91,3.7l84.26-.87,41.89.02,41.91.51c28,.42,56.15.76,84.44-.12,28.27-1.02,56.72-2.69,84.98-7.78,2.75-.5,4.58-3.13,4.09-5.89-.39-2.19-2.16-3.8-4.24-4.11Z"/>
      <path class="st34" d="M3857.09,355.79c26.67,57.3,1.85,412.54-227.47,766.38-81.68,126.08-189.38,251.94-329.89,364.12l-130.19-110.95c-6.48,1.35,11.83-80.62,41.35-178.42,23.88-78.96,55.1-168.22,86.59-232.37,274.5-558.96,506.97-721.76,559.6-608.76Z"/>
      <path class="st23" d="M3299.75,1502.09c3.46,0,6.94-1.13,9.86-3.45,288.4-230.15,429.96-509.51,497.93-703.33,75.14-214.28,85.47-399.83,63.89-446.17-12.75-27.36-35.57-42.6-64.26-42.89-.3,0-.6,0-.89,0-56.24,0-131.81,54.49-218.65,157.66-97.19,115.48-202.42,286.2-304.31,493.69-29.83,60.74-64.11,154.27-94.04,256.58-11.75,40.15-21.94,78.77-28.71,108.74-11.21,49.66-9.04,55.6-4.25,61.82,3.88,5.04,10.14,7.4,16.35,6.14,8.56-1.72,14.11-10.06,12.39-18.62-.21-1.07-.53-2.09-.94-3.06,2.36-33.52,62.11-264.29,127.59-397.65,213.93-435.65,406.09-633.66,494.53-633.66.2,0,.4,0,.6,0,16.76.17,28.17,7.99,35.91,24.61,13.48,28.95,13.93,197.09-65.06,422.35-66.59,189.9-205.28,463.61-487.81,689.07-6.83,5.45-7.94,15.4-2.5,22.23,3.13,3.91,7.73,5.95,12.37,5.95Z"/>
      <path class="st1" d="M3353.79,1263.41c19.87-1.94,45.11-3.51,73.39-3.19,9.93.11,19.33-4.42,25.34-12.33,21.62-28.46,77-106.06,152.07-245.49,109.56-203.46,174.25-444.59,132.95-466.78-62.77-33.72-306.95,306.86-416.67,687.87-6.11,21.22,10.94,42.06,32.92,39.91Z"/>
      <g class="st28">
        <path class="st23" d="M3737.53,535.64c8.46,4.54,12.47,18.34,12.57,39.1-82.08,20.56-297.59,337.43-398.82,688.8-20.78.44-36.31-19.65-30.43-40.07,109.76-380.98,353.92-721.57,416.68-687.83Z"/>
      </g>
      <path class="st23" d="M3350.76,1276.06c1.41,0,2.83-.07,4.25-.21h0c24-2.34,48.23-3.41,72.03-3.13.17,0,.34,0,.5,0,13.67,0,26.7-6.43,34.94-17.28,20.71-27.26,77.09-105.91,153.12-247.12,94.87-176.19,163.27-396.55,143.5-462.31-3.09-10.28-8.35-17.48-15.65-21.4-9.95-5.34-22.09-5.06-36.08.83-90.97,38.33-298.38,346.88-398.51,694.6-4.04,14.03-.88,29.1,8.44,40.31,8.33,10.01,20.6,15.71,33.46,15.71ZM3419.75,1247.68c-22.25,0-44.81,1.1-67.18,3.29h0c-6.2.63-12.06-1.8-16.06-6.61-4.08-4.91-5.41-11.25-3.64-17.4,96.6-335.47,299.67-642.87,384.2-678.48,6.49-2.74,11.67-3.4,14.55-1.84.69.37,2.21,2.17,3.54,6.57,15.76,52.42-43.88,261.84-141.57,443.27-75.2,139.67-130.67,217.06-151.02,243.85-3.57,4.7-9.22,7.44-15.24,7.4-2.52-.03-5.04-.04-7.57-.04Z"/>
      <path class="st23" d="M3937.94,1776.37c7.98,0,14.84-6.02,15.71-14.14.15-1.45.1-2.73-.01-3.71-.35-7.7-.81-14.76-1.41-21.55l-.12-2.2c-9.2-109.89-43.05-216.2-97.92-307.9-4.48-7.49-14.19-9.94-21.69-5.45-7.49,4.48-9.93,14.2-5.45,21.69,52.41,87.58,84.75,189.19,93.51,293.84l.1,2c.01.18.02.35.04.53.59,6.64,1.04,13.59,1.38,21.25.01.3.03.59.06.88.5,7.52,6.34,13.83,14.1,14.66.57.06,1.14.09,1.71.09Z"/>
      <path class="st23" d="M3938,1778.05c.53,0,1.07-.02,1.61-.08,8.61-.87,14.9-8.48,14.18-17.06-.01-.32-.02-.61-.04-.89-.02-.65-.07-1.23-.13-1.73l-1.38-21.21c-.56-8.72-8.14-15.32-16.81-14.76-8.72.57-15.33,8.09-14.76,16.81l1.42,21.94c.02.21.03.43.06.65.01.15.02.3.04.45,0,.41.03,1.03.09,1.67.82,8.15,7.7,14.23,15.72,14.23ZM3922.19,1758.86s0,.02,0,.02c0,0,0-.02,0-.02Z"/>
      <g class="st28">
        <path class="st23" d="M2994.05,2192.68c57.93,26.53,131.87,51.4,229.34,74.65,142.15,33.85,284.74,27.12,395.02,3-46.46-99.29-58.84-168.65-58.84-168.65l-519.93-33.06s-20.13,48.4-45.59,124.04Z"/>
      </g>
      <path class="st32" d="M4672.83,1108.52c-27.45,63.1-369.96,322.35-832.19,326.48,5.01,8.36,9.82,16.81,14.39,25.36,45.05,83.32,73.07,177.4,81.26,275.27l.16,2.44c.16,3.7.61,11.46,1.45,21.97.03.15.06.3,0,.53,3.55,43.59,14.19,133.98,43.93,185.44,43.68,75.45-50.12,66.96-82.1,61.8-2.62-.44-4.38,3.15-2.41,4.99,24.63,22.74,56.79,83.54,13.76,100.3-33.89,13.17-44.24,2.27-125.62,46.8l-6.8,3.67c-93.01,59.3-215.73,77.13-331.12,71.59-202.92-9.8-361.37-63.06-361.37-63.06-110.02-35.99-220.4-92.29-288.62-179.75l-5.11-5.65c-62.17-69.54-75.43-62.84-103.05-86.74-35.06-30.36,15.18-76.85,45.95-89.87,2.46-1.05,1.97-5.06-.61-5.56-31.77-5.94-123.11-29.7-57.12-86.05,45.16-38.5,85.05-120.49,102.6-160.29l.22-.47c.24-.58.45-1.1.69-1.68,2.19-5.53,4.5-10.97,6.98-16.35l-5.1,12.1c2.3-5.23,4-9.34,5.1-12.1.22-.47.39-.87.52-1.27.34-.6.5-1.11.67-1.56.07-.17.18-.41.23-.63,114.2-256.54,371.63-428.33,655.47-384.57,52.3,10.28,101.37,27.1,146.68,49.73,93.59-53.89,214.81-97.11,254.41-108.02,499.93-137.6,774.96-114.82,824.29-37.31,9.98,15.56,10.79,33.35,2.45,52.47Z"/>
      <g class="st28">
        <path class="st23" d="M4672.83,1108.52c-27.45,63.1-369.96,322.35-832.19,326.48,5.01,8.36,9.82,16.81,14.39,25.36l-43.35-40.02c-7.21-6.66-2.39-18.74,7.42-18.53,49.94,1.06,167.31-6.1,390.35-66.81,284.44-77.54,429.33-239.83,460.92-278.95,9.97,15.56,10.78,33.35,2.45,52.47Z"/>
      </g>
      <g class="st28">
        <path class="st23" d="M3984.26,1950.45c37.54,70.65-53.21,62.4-84.52,57.37-2.62-.44-4.38,3.15-2.41,4.99,24.63,22.74,56.79,83.54,13.76,100.3-33.89,13.17-44.24,2.27-125.62,46.8l-6.8,3.67c-93.01,59.3-215.73,77.13-331.12,71.59-202.92-9.8-361.37-63.06-361.37-63.06-110.02-35.99-220.4-92.29-288.62-179.75l-5.11-5.65c-3.54-3.98-6.98-7.72-10.2-11.19,66.83,60.84,287.99,199.46,613.02,206.89,252.87,5.79,429.69-81.53,459.62-102.28,69.78-48.38-35.35-86.53-28.38-108.39,11.9-37.28,115.78-10.29,157.73-21.29Z"/>
      </g>
      <path class="st23" d="M3447.3,2240.42c28.71,3.58,57.74,5.08,86.84,4.67,29.1-.29,58.28-2.86,87.23-7.57,14.49-2.29,28.88-5.37,43.21-8.8,14.25-3.76,28.45-7.86,42.41-12.86,27.97-9.8,55.12-22.5,80.56-38.4l-1.09.64c11.4-5.91,22.12-11.7,33.19-17.09,11.02-5.27,22.09-10.24,33.17-14.24,11.18-4.06,21.79-6.88,34.12-9.33,6.22-1.28,13.12-2.81,19.92-4.93,3.43-1,6.75-2.27,10.1-3.48,3.91-1.57,8.05-3.54,11.94-6.3,3.94-2.63,7.57-6.23,10.7-10.18,2.98-4.1,5.38-8.64,6.89-13.28,2.97-9.28,3.07-18.33,1.96-26.27-2.31-16.02-8.3-29.25-15.4-41.55-3.6-6.13-7.61-11.95-12.07-17.55-2.21-2.81-4.6-5.54-7.13-8.23-1.29-1.34-2.58-2.68-3.99-3.99l-1.04-.99c-.59-.54.69.58,1.22,1.32.64.8,1.28,1.76,1.73,2.74,1.96,4.08,1.6,8.15.47,11.01-1.18,2.9-3.3,5.67-7.2,7.46-1.91.87-4.21,1.29-6.28,1.2-.52-.02-1.04-.07-1.55-.16-.12-.02.14.02.19.03l.62.09,4.97.71c3.33.45,6.66.83,10,1.16,6.69.65,13.43,1.07,20.27,1.17,13.7.07,27.75-.48,43.04-5.54,7.53-2.69,15.88-6.58,22.83-14.49,3.52-3.77,6.15-8.67,7.94-13.6.78-2.46,1.38-5,1.79-7.47.2-2.38.57-4.94.45-7.19-.18-9.28-2.43-17.22-5.23-24.14-1.34-3.58-2.97-6.78-4.55-10.07l-4.81-8.89c-5.64-9.78-10.07-20.87-14.09-32.1-7.93-22.61-13.44-46.67-17.71-70.95-4.19-24.33-7.24-49.01-9.24-73.73l-.04,3.01c.17-1.83.07-3.77-.3-5.57l.31,2.09-1.36-20.9c-.49-7.86-1.37-14.83-2.04-22.28l-2.69-21.74-3.35-21.63c-4.92-28.77-11.57-57.25-19.91-85.23-16.67-55.96-40.14-109.94-70.11-160.16l-13.43,23.94c44.29-.64,88.54-3.32,132.55-8.15,44.01-4.92,87.7-12.35,130.98-21.59,86.58-18.48,171.15-45.87,252.49-80.7,81.26-35.01,159.55-77.24,231.8-129.34,17.96-13.21,35.56-26.97,52.42-42.04,4.21-3.77,8.42-7.54,12.47-11.61l6.13-6,5.96-6.37c4.02-4.12,7.77-8.94,11.58-13.65l5.48-7.82c1.72-3.07,3.58-6.37,5-9.49,2.55-6.01,4.51-12.48,5.7-19.3,1.16-6.83,1.24-14.1.2-21.24-1.98-14.49-9.55-27.52-18.54-37.22-9.11-9.76-19.59-16.91-30.22-22.75-10.69-5.75-21.65-10.19-32.68-13.9-22.08-7.38-44.43-11.76-66.74-14.98-22.32-3.18-44.65-4.85-66.92-5.8-44.54-1.74-88.88-.16-132.94,3.16-88.14,6.83-175.27,20.61-261.48,37.94-43.12,8.64-85.99,18.35-128.68,28.7-21.34,5.2-42.63,10.58-63.87,16.15l-31.82,8.48-15.89,4.32c-5.35,1.48-10.97,3.11-16.24,4.79-42.55,13.53-83.59,29.34-124.31,46.69-40.64,17.37-80.64,36.49-119.41,58.6l14.96-.44c-37.37-18.67-76.77-33.23-117.19-43.53-10.21-2.58-20.05-4.88-30.71-6.98-10.5-1.82-20.94-2.92-31.4-4.32-10.4-.79-20.78-1.98-31.2-2.43-10.43-.31-20.85-1.08-31.29-.8-41.73.07-83.53,4.31-124.31,13.26-40.77,8.98-80.57,22.2-118.64,39.2-37.98,17.23-74.16,38.26-108.08,62.39-33.94,24.12-65.27,51.77-94.1,81.7-28.87,29.93-54.84,62.58-77.8,97.19l-8.59,13-8.11,13.3c-5.54,8.78-10.47,17.93-15.57,26.97-5.14,9.02-9.59,18.41-14.42,27.6-2.33,4.66-4.48,9.49-6.73,14.23l-3.33,7.14-1.67,3.57c-.3.68-.5,1-.88,1.98l-.13.33v-.04s.06-.11.06-.11c.04-.07.09-.13.16-.19l-.64,1.27-8.42,19.9-.62,1.9c.33-1.46.97-2.94,1.8-4.19l-1.43,2.77-.77,1.93c-3.21,8.12.77,17.31,8.89,20.53,8,3.17,17.04-.65,20.38-8.53l.02-.06,9.18-21.69-.75,1.54c.51-1.02.99-2.06,1.43-3.11l.62-1.57-29.41-11.64-.5,1.26c.04-.12.11-.23.22-.32l-.95,2.03-8.04,18.97-.69,2.07c.33-1.46.97-2.94,1.8-4.19l-1.19,2.21c-10.01,22.69-21.01,45.01-32.99,66.59-12.07,21.49-25.11,42.44-40.07,61.17-7.51,9.25-15.33,18.27-23.92,25.62l-7.55,6.86c-2.55,2.66-5.17,5.05-7.59,8.07-4.9,5.69-9.65,12.41-12.73,21.23-3.28,8.62-3.3,20.48.87,29.82,4.06,9.45,10.56,15.71,16.74,20.66,12.64,9.67,25.64,14.84,38.55,19.3,6.47,2.17,12.95,4.01,19.45,5.61,3.26.79,6.52,1.54,9.8,2.22l4.92.98.61.12c-.87-.13-1.93-.47-2.85-.87-1.94-.84-3.63-2.16-4.82-3.6-2.36-2.91-3.04-5.67-2.98-8.56.06-2.83,1.32-6.59,4.64-9.43.82-.68,1.66-1.23,2.54-1.69l.68-.31c.3-.12-.01,0,.01,0l-.32.14-1.29.58c-1.75.75-3.38,1.6-5.04,2.42-3.24,1.71-6.4,3.48-9.39,5.4-6.04,3.8-11.7,7.97-17.08,12.57-10.69,9.24-20.66,19.77-27.93,34.08-3.49,7.18-6.34,15.63-6.29,25.25-.08,4.76.85,9.73,2.37,14.38,1.58,4.68,3.97,8.92,6.69,12.66,2.7,3.65,5.97,6.93,8.92,9.46,2.7,2.27,5.39,4.53,8.25,6.62,5.65,4.25,11.54,7.98,16.94,11.3,10.71,6.51,19.86,12.83,28.94,20.6,9.02,7.67,17.68,16.21,26.19,25.01,8.52,8.92,16.55,18.09,25.17,27.6l-.83-.98c18.56,23.71,39.7,45.22,62.82,64,23.08,18.84,47.9,35.23,73.67,49.48,25.78,14.26,52.55,26.42,79.96,36.51,27.39,10.11,55.33,18.45,83.77,24.43,2.87.6,5.68-1.23,6.28-4.1.52-2.48-.79-4.92-3-5.92-26.19-11.9-52.15-23.69-77.5-36.45-25.31-12.79-50.11-26.26-73.93-41.06-23.8-14.81-46.61-30.93-67.8-48.76-21.12-17.87-40.88-37.23-57.73-58.83l-.02-.02c-.25-.32-.54-.66-.81-.96-16.99-18.59-34.8-37.81-55.44-54.87-10.23-8.56-22-16.56-32.96-23.04-5.39-3.26-10.2-6.27-14.68-9.58-2.27-1.61-4.41-3.41-6.58-5.18-1.86-1.58-3.04-2.81-4.14-4.22-1.99-2.77-2.91-5.12-2.92-8.21-.07-3.05,1.01-7.01,3.04-11.13,4.14-8.34,11.63-16.82,20.06-23.98,4.22-3.62,8.76-6.95,13.42-9.88,2.32-1.49,4.69-2.81,7.04-4.05,1.17-.57,2.34-1.19,3.5-1.68l.87-.39,1.44-.68c1.24-.62,2.41-1.39,3.52-2.34,4.56-3.83,6.43-9.21,6.56-13.6.1-4.46-1.06-8.83-4.44-12.96-1.71-2.03-4.03-3.85-6.7-5.01-1.28-.58-2.73-.98-3.98-1.23l-.55-.1-4.38-.87c-2.91-.6-5.8-1.27-8.69-1.97-5.76-1.42-11.45-3.04-16.96-4.89-10.93-3.67-21.64-8.39-29.08-14.2-3.64-2.86-6.32-5.94-7.18-8.22-.79-2.29-1.11-3.91,0-7.18,1.06-3.15,3.5-7.12,6.89-10.94,1.49-1.95,3.6-3.81,5.39-5.73l6.49-5.88c10.61-9.14,19.4-19.34,27.8-29.68,16.59-20.81,30.3-42.96,42.98-65.51,12.55-22.61,23.93-45.69,34.31-69.25l-1.19,2.21c.98-1.54,1.77-3.31,2.26-5.07l-.69,2.07,8.33-19.71-.95,2.03c.51-1.02.99-2.06,1.43-3.11l.62-1.57c3.24-8.11-.71-17.31-8.83-20.55-8.11-3.24-17.31.71-20.55,8.83h0s-.03.09-.03.09l-.5,1.26c.04-.12.11-.23.22-.32l-.75,1.54-9.2,21.74,29.29,11.94.76-1.94-1.42,2.77c.98-1.54,1.77-3.31,2.26-5.07l-.62,1.9,7.95-18.78-.64,1.27,3.83-8.33,3.12-6.66c2.11-4.44,4.08-8.89,6.29-13.31,4.62-8.79,8.87-17.78,13.79-26.4,4.88-8.65,9.58-17.4,14.89-25.8l7.75-12.72,8.21-12.42c21.95-33.08,46.76-64.28,74.31-92.82,27.52-28.55,57.37-54.91,89.67-77.86,32.28-22.96,66.65-42.93,102.67-59.28,36.12-16.12,73.8-28.63,112.38-37.13,38.58-8.47,78.09-12.47,117.57-12.54,9.88-.28,19.74.47,29.61.75,9.87.42,19.69,1.56,29.54,2.3,9.66,1.3,19.46,2.32,28.96,3.96,9.27,1.83,19.21,4.13,28.69,6.54,38.3,9.76,75.55,23.53,110.86,41.17,4.88,2.44,10.41,2.12,14.83-.36l.13-.08c37.24-21.23,76.28-39.93,116.07-56.93,39.75-16.95,80.45-32.59,121.27-45.57,5.15-1.64,10.03-3.05,15.22-4.49l15.77-4.28,31.57-8.41c21.07-5.53,42.19-10.86,63.34-16.02,42.32-10.26,84.79-19.88,127.44-28.43,85.27-17.15,171.3-30.72,257.64-37.41,43.15-3.25,86.39-4.77,129.28-3.09,21.42.92,42.77,2.53,63.76,5.52,20.95,3,41.7,7.14,61.13,13.65,19.26,6.43,37.89,15.48,49.7,28.11,11.81,12.59,13.91,27.39,6.76,43.96-.89,1.82-1.79,3.26-2.66,5l-3.95,5.6c-3.09,3.75-6.02,7.64-9.65,11.33l-5.24,5.61-5.6,5.46c-3.66,3.69-7.59,7.21-11.53,10.73-15.76,14.09-32.64,27.31-49.91,40.01-69.72,50.29-146.32,91.69-225.66,125.85-79.47,34.02-162.14,60.81-246.68,78.84-42.26,9.02-84.91,16.28-127.85,21.08-42.95,4.7-86.1,7.32-129.29,7.95h-.07c-8.74.13-15.72,7.32-15.6,16.06.04,2.86.88,5.59,2.23,7.88,28.57,47.88,50.99,99.44,66.93,152.94,7.97,26.75,14.33,53.99,19.04,81.52l3.21,20.7,2.57,20.76c.61,6.76,1.48,13.98,1.89,20.37l1.42,21.85.3,2.09c-.34-1.45-.41-3.05-.21-4.54l-.04,3.01c2.07,25.64,5.21,51.16,9.6,76.63,4.56,25.44,10.04,50.88,18.73,76.02,4.43,12.55,9.31,25.08,16.2,37.27l4.17,7.79c1.11,2.42,2.38,4.86,3.21,7.21,1.97,4.74,2.89,9.28,2.93,12.63.01,3.49-.75,4.89-2.15,6.59-1.34,1.75-4.77,3.69-9.07,5.12-8.77,2.91-20.39,3.71-31.85,3.42-5.79-.15-11.66-.57-17.54-1.2-2.94-.32-5.88-.69-8.81-1.11l-4.4-.68-.55-.09-.39-.06c-.7-.1-1.42-.17-2.14-.2-2.85-.14-5.95.45-8.58,1.63-5.34,2.44-8.59,6.48-10.33,10.85-1.74,4.32-2.08,10.09.54,15.61.65,1.31,1.47,2.64,2.37,3.73.8,1.03,2.33,2.46,2.04,2.18l.67.65c.9.84,1.79,1.8,2.68,2.74,1.77,1.94,3.53,3.98,5.2,6.15,3.36,4.31,6.5,8.95,9.25,13.74,5.47,9.51,9.8,19.9,10.97,29,.67,4.54.29,8.45-.59,11.21-.96,2.72-2.22,4.45-4.8,6.25-1.27.93-2.86,1.68-4.8,2.48-2.6.92-5.17,1.92-7.82,2.67-5.27,1.63-10.71,2.85-16.86,4.11-12.46,2.43-26.38,5.94-38.88,10.76-25.16,9.46-48.22,21.9-70.24,34.08l-.39.22c-.24.13-.49.28-.71.43-11.45,7.47-23.39,14.28-35.7,20.45-6.16,3.08-12.38,6.03-18.76,8.71l-9.49,4.17-9.66,3.82c-25.8,10.1-52.67,17.84-80,23.97-27.35,6.09-55.2,10.55-83.34,13.55-28.14,2.99-56.51,4.66-85.08,5.58-2.92.08-5.22,2.51-5.14,5.43.08,2.63,2.1,4.77,4.64,5.1Z"/>
      <path class="st23" d="M3249.57,1973.64s-4.6,38.67-21.48,63.86c-8.66,12.83-20.54,22.15-36.71,20.81-17.62-1.46-29.2-13.4-36.84-28.42-14.77-28.89-14.93-69.38-14.93-69.38l109.96,13.12Z"/>
      <path class="st20" d="M3228.1,2037.5c-8.66,12.83-20.54,22.15-36.71,20.81-17.62-1.46-29.2-13.4-36.84-28.42,8.64-12.94,20.52-22.2,36.65-20.86,17.63,1.46,29.25,13.39,36.9,28.46Z"/>
      <path class="st23" d="M3194.63,2068.35c52.98,0,64.29-89.64,64.76-93.54.65-5.42-3.22-10.33-8.64-10.98-5.37-.68-10.34,3.21-10.99,8.63-.1.79-10.62,79.06-47.55,76.02-41.15-3.46-42.69-87.16-42.69-88-.02-5.44-4.45-9.84-9.88-9.84h-.04c-5.46.02-9.86,4.46-9.85,9.92.01,4.19,1.02,102.61,60.81,107.63,1.39.12,2.75.17,4.08.17Z"/>
      <path class="st35" d="M3119.68,1948.7s-9.28,23.8,11.85,36.28c26.3,15.53,53.82-7.06,60.46-16.92,1.54-2.29,6.09-1.94,6.85.72,4.15,14.47,22.87,44.2,58.2,35.66,13.88-3.36,28.02-18.1,23.45-35.12l-60.33-85.86"/>
      <path class="st23" d="M3244.87,2015.83c4.58,0,9.41-.56,14.5-1.79,10.93-2.64,20.92-10.05,26.71-19.81,5.11-8.6,6.48-18.1,3.96-27.48-1.41-5.27-6.85-8.42-12.11-6.98-5.27,1.41-8.4,6.84-6.99,12.11,1.12,4.16.49,8.28-1.87,12.25-3.04,5.12-8.68,9.32-14.36,10.69-34.7,8.41-46.27-28.39-46.38-28.77-1.39-4.85-5.53-8.39-10.79-9.22-5.44-.86-10.86,1.38-13.77,5.71-4.44,6.6-26.62,26.1-47.23,13.93-13.26-7.84-8.25-22.59-7.64-24.25,1.89-5.09-.66-10.79-5.74-12.72-5.07-1.94-10.74.55-12.71,5.61-4.27,10.94-6.41,35.13,16.03,48.38,26.81,15.82,53.42.71,66.77-12,8.32,16.71,25.95,34.34,51.59,34.34Z"/>
      <path class="st23" d="M3135.67,1871.78c-4.16,24.2,19.14,50.23,37.67,66.66,12.83,11.38,31.03,14.51,46.93,8.07,22.95-9.29,53.61-26.04,57.78-50.24,6.76-39.31-135.61-63.8-142.37-24.49Z"/>
      <g class="st26">
        <path class="st6" d="M3174.94,1872.87c-.96,5.59,10.65,12.66,19.71,17.28,6.28,3.19,14.68,4.64,21.66,3.73,10.08-1.32,23.39-4.11,24.35-9.7,1.56-9.07-64.16-20.38-65.72-11.3Z"/>
      </g>
      <path class="st23" d="M3198.85,1978.67c1.71,0,3.45-.44,5.03-1.39,4.61-2.73,6.19-8.62,3.61-13.28-.36-.77-6.68-15.05.1-53.3.95-5.38-2.63-10.5-8.01-11.45-5.37-1-10.51,2.63-11.46,8.01-8.16,46.04.41,63.52,2.21,66.56,1.84,3.11,5.14,4.85,8.51,4.85Z"/>
      <path class="st1" d="M3694.36,1300.68c13.67,13.25,30.38,30.64,47.59,51.39,6.05,7.29,15.14,11.33,24.6,10.81,34.03-1.84,124.61-9.46,272.31-40.91,215.52-45.89,430.74-147.63,421.38-191.35-14.22-66.44-412.48-33.83-757.18,121.49-19.2,8.65-23.83,33.91-8.7,48.56Z"/>
      <g class="st28">
        <path class="st23" d="M4460.24,1130.63c1.92,8.95-5.63,20.38-20.67,33.27-65.59-46.99-428.93-8.16-746.84,135.04-13.14-14.84-8.11-38.52,10.35-46.85,344.7-155.27,742.96-187.91,757.16-121.46Z"/>
      </g>
      <path class="st23" d="M3765,1375.42c.74,0,1.49-.02,2.24-.06,32.63-1.77,124.66-9.32,274.24-41.16,186.75-39.76,389.33-126.12,425.02-181.17,5.65-8.72,7.67-17.14,5.98-25.02-2.29-10.71-10.09-19.5-23.17-26.12-84.09-42.54-436.64-2.98-751.37,138.83-12.87,5.8-22,17.55-24.43,31.44-2.41,13.77,2.14,27.78,12.16,37.49h0c16.48,15.97,32.18,32.92,46.67,50.39,8.07,9.73,20.14,15.38,32.66,15.38ZM4340.98,1110.07c44.78,0,78.52,4.77,97.03,14.13,5.75,2.91,9.4,6.21,10.01,9.04.1.48-.15,2.53-2.52,6.19-28.33,43.71-217.2,129.43-409.24,170.32-147.85,31.48-238.34,38.92-270.38,40.65-5.44.24-10.78-2.07-14.3-6.31-15.07-18.17-31.39-35.79-48.52-52.39-4.13-4-5.93-9.55-4.93-15.23,1.01-5.8,4.69-10.52,10.08-12.95,231.33-104.24,488.94-153.45,632.78-153.45ZM3694.36,1300.68h-.05.05Z"/>
      <ellipse class="st4" cx="3604.99" cy="2065.34" rx="41.88" ry="77.01" transform="translate(1120.96 5395.68) rotate(-83.09)"/>
      <ellipse class="st4" cx="2842.32" cy="1888.17" rx="38.4" ry="70.62" transform="translate(286.38 4148.95) rotate(-75.09)"/>
      <path class="st23" d="M3080.18,1757.19c-.04.23-.18.44-.41.55-.38.2-.84.05-1.04-.33-15.06-28.64-45.87-48.36-78.2-49.97-30.49-1.52-61.25,13.13-79.6,37.47-1.93,2.56-5.08,3.91-8.26,3.5-16.75-2.19-34.01-10.87-45.62-19.85,18.76,1.06,34.97.15,53.97-13.19-13.33.03-26.39-7.68-32.79-19.37,13.9,6.82,30.62,7.64,45.12,2.23-8.32.04-16.18-6.54-17.61-14.74,10.93,8.6,26.38,11.07,39.45,6.32-6.89-4.68-11.03-13.13-10.5-21.44,6.73,8.56,15.83,16.02,25.55,20.95-5.51-7.18-8.66-16.14-8.85-25.18,7.07,12.39,17.32,22.94,29.5,30.38-5.87-8.1-9.18-18.01-9.36-28.01,5.68,13.93,15.99,25.93,28.91,33.63-5.29-7.99-7.6-17.9-6.39-27.4,3.9,12.27,11.25,23.42,20.99,31.83-3.31-6.82-4.51-14.66-3.39-22.16,4.04,10.38,10.45,19.84,18.59,27.45-2.2-5.37-2.18-11.6.04-16.95,3.01,9.51,9.77,20.72,16.65,27.94-.69-5.91.89-10.16,2.91-15.75-.76,5.74.88,11.59,3.58,16.71,2.7,5.12,6.41,9.62,10.1,14.09-.06-4.27,1.06-8.55,3.21-12.25-2.35,11.05-.83,22.68,3.44,33.15.06.14.07.29.05.43Z"/>
      <path class="st23" d="M3416.3,1870.03c-.03.23.05.47.23.65.31.3.79.29,1.09-.02,22.7-23.06,57.91-33.02,89.32-25.2,29.63,7.37,54.83,30.29,65.36,58.9,1.11,3.01,3.73,5.22,6.89,5.74,16.67,2.75,35.7-.57,49.42-5.8-18.27-4.42-33.52-9.98-47.84-28.25,12.75,3.89,27.49.28,36.99-9.05-15.28,2.5-31.52-1.55-43.83-10.93,7.95,2.44,17.38-1.58,21.12-9.02-12.95,5.07-28.45,2.96-39.59-5.37,7.94-2.48,14.35-9.38,16.26-17.48-8.92,6.25-19.79,10.75-30.52,12.66,7.35-5.27,12.96-12.94,15.76-21.54-10.36,9.81-23.22,16.95-37.03,20.54,7.96-6.05,14-14.58,17.06-24.1-9.47,11.69-22.81,20.19-37.41,23.83,7.37-6.12,12.45-14.93,14.05-24.38-7.28,10.61-17.55,19.16-29.31,24.39,5.14-5.57,8.56-12.72,9.66-20.23-6.88,8.77-15.74,15.97-25.73,20.9,3.66-4.5,5.44-10.47,4.87-16.24-5.63,8.24-15.34,17-24.02,21.92,2.37-5.45,2.09-9.98,1.77-15.92-.93,5.71-4.19,10.84-8.26,14.96-4.06,4.12-8.92,7.36-13.74,10.56,1.29-4.07,1.46-8.5.47-12.65-.95,11.26-5.77,21.95-12.88,30.73-.1.12-.15.26-.17.4Z"/>
    </g>
    <g>
      <path class="st9" d="M722.68,2692.35c-11.6,125.15,145.02,242.64,235.6,242.64s164-73.43,164-164-98.2-101.76-164-164c-80.61-76.25-224.7-32.14-235.6,85.36Z"/>
      <g class="st28">
        <path class="st23" d="M958.26,2934.99c90.6,0,164.02-73.42,164.02-164.02,0-16.54-3.29-30.48-9.08-42.52-28.16,49.75-92.24-64.25-153.52-64.25-38.54,0-84.35,92.93-129.56,103.97-42.65,10.42-87.69-21.17-87.53-135.47-10.7,16.91-17.83,36.92-19.92,59.66-11.58,125.11,145.03,242.63,235.59,242.63Z"/>
      </g>
      <path class="st23" d="M958.27,2950.81c-57.12,0-134.33-40.95-187.78-99.57-45.91-50.36-68.48-107.3-63.57-160.34,5.44-58.65,41.87-106.16,97.45-127.11,57.89-21.81,121.02-9.66,164.76,31.72,20.95,19.82,45.89,34.42,70,48.54,48.65,28.49,98.95,57.95,98.95,126.94,0,99.15-80.66,179.82-179.82,179.82ZM862.19,2584.77c-15.53,0-31.31,2.83-46.66,8.61-43.99,16.58-72.82,54.12-77.11,100.43h0c-4.09,44.07,15.6,92.41,55.44,136.11,47.14,51.71,116.28,89.25,164.4,89.25,81.71,0,148.19-66.48,148.19-148.19,0-50.86-36.76-72.39-83.3-99.65-25.65-15.02-52.17-30.55-75.75-52.86-23.36-22.09-53.74-33.71-85.21-33.71ZM722.68,2692.35h.05-.05Z"/>
      <path class="st14" d="M1909.63,3149.69c-30.68,91.82-279.44,82.41-349.43,51.48-51.72-22.82-70.27-68.17-76.31-105.46-5.26-32.58-1.03-59-1.03-59l252.63-50.81c46.42,9.57,95.45,25.9,130.53,50.61,38.35,26.97,60.06,63.98,43.61,113.17Z"/>
      <path class="st23" d="M1707.52,3238.73c-62.39,0-122.22-9.19-153.73-23.1-85.4-37.74-93.96-135.17-86.56-181.42,1.38-8.63,9.52-14.44,18.12-13.12,8.62,1.38,14.5,9.49,13.12,18.12-.7,4.45-16.18,110.23,68.11,147.48,52.44,23.18,207.19,31.48,284.66-2.75,23.55-10.41,38.15-23.62,43.38-39.27,7.56-22.63,6.12-42.53-4.42-60.84-20.68-35.93-78.24-65.97-157.93-82.43-8.55-1.77-14.05-10.13-12.29-18.69,1.77-8.56,10.13-14.06,18.69-12.29,52.03,10.75,144.46,37.72,178.94,97.63,15.1,26.24,17.46,55.39,7,86.66-8.17,24.44-28.56,44.02-60.6,58.17-41.5,18.34-100.05,25.86-156.51,25.86Z"/>
      <path class="st23" d="M1739.63,3138.53c8.46,2.38,16.71,5.81,24.59,10.33,7.82,4.57,15.44,10.29,21.44,18.44,5.98,8.02,9.71,19.17,8.82,30.29-.78,11.09-5.02,21.23-10.14,30l-.23.4c-3.9,6.68-12.47,8.92-19.15,5.02-6.67-3.9-8.92-12.47-5.02-19.15.64-1.1,1.46-2.12,2.32-2.97,5.24-5.1,9.5-10.7,11.76-16.81,2.27-6.06,2.24-12.92-.4-19.97-2.65-7.03-7.66-13.78-13.59-19.76-5.98-5.97-12.87-11.35-20.4-15.83Z"/>
      <path class="st23" d="M1819.59,3097.07c9.91,1.75,19.66,5.32,28.67,10.5,8.99,5.2,17.33,12.06,23.95,20.83,6.61,8.71,11.31,19.56,12.59,31.19,1.36,11.64-.7,23.56-4.69,34.42v.03c-2.28,6.18-9.13,9.35-15.31,7.08s-9.35-9.12-7.08-15.3c.26-.72.63-1.46,1.01-2.09,4.43-7.28,7.55-15.21,8.29-23.62.78-8.39-.92-17.22-4.89-25.47-8.02-16.54-23.9-30.26-42.53-37.59Z"/>
      <path class="st8" d="M1292.19,2991.49c-9.65,41.08-21.71,74.38-37.8,102.18-28.15,48.56-68.6,80.31-130.17,107.51-70.03,30.92-318.74,40.33-349.43-51.48-19.69-58.88,36.85-110.83,114.23-145.08,46.5-20.64,100.48-34.84,149.98-40.33l253.18,27.2Z"/>
      <path class="st23" d="M976.88,3238.73c-56.46,0-115.01-7.52-156.51-25.86-32.04-14.16-52.42-33.73-60.6-58.17-9.02-26.98-5.03-54.95,11.55-80.88,43.24-67.64,166.51-114.21,265.93-125.26,8.66-.99,16.5,5.29,17.47,13.97.96,8.68-5.29,16.5-13.97,17.47-89.7,9.97-205.28,52.21-242.77,110.86-11.57,18.1-14.25,35.7-8.2,53.81,5.23,15.65,19.83,28.86,43.38,39.27,77.48,34.24,232.22,25.93,284.66,2.75,93.66-41.39,133.77-91.56,158.96-198.82,2-8.5,10.52-13.78,19.01-11.78,8.5,2,13.78,10.51,11.78,19.01-27.19,115.76-75.15,175.53-176.97,220.52-31.5,13.92-91.35,23.11-153.73,23.11Z"/>
      <path class="st23" d="M944.57,3116.83c-9.2,5.47-17.55,12.19-24.76,19.67-7.17,7.5-13.05,16.01-16.44,24.96-3.51,8.95-3.96,18.21-2.08,26.78,1.98,8.61,6.28,16.66,11.83,24.09,4.6,6.17,3.33,14.9-2.84,19.5-6.17,4.6-14.9,3.33-19.5-2.84-.6-.81-1.1-1.66-1.51-2.53l-.14-.32c-4.98-11.06-8.49-23.38-8.52-36.05.02-12.67,3.84-25.19,10.49-35.04,6.55-9.95,15.12-17.68,24.27-23.86,9.2-6.13,19.01-10.97,29.2-14.36Z"/>
      <path class="st23" d="M864.07,3080.02c-10.79,4.22-19.98,11.25-27.88,19.22-7.87,8.02-14.43,17.18-19.27,26.93-4.82,9.73-7.87,20.15-8.19,30.2-.37,10.06,2.13,19.48,6.96,27.39,3.44,5.61,1.67,12.95-3.94,16.39-5.62,3.44-12.95,1.67-16.39-3.95-.35-.58-.65-1.17-.89-1.78l-.16-.4c-5.12-12.94-6-27.24-3.22-39.99,2.72-12.82,8.53-24.21,15.72-34.06,7.23-9.86,15.91-18.32,25.54-25.25,9.63-6.86,20.35-12.39,31.72-14.7Z"/>
      <path class="st6" d="M1629.69,2053.52s232.54,76.89,360.85-24.56v196.71s-83.83,93.9-231.21,90.74c-110.4-2.36-176.5-54.86-176.5-54.86"/>
      <path class="st23" d="M1766.68,2332.3c-2.55,0-5.1-.02-7.69-.08-114.41-2.45-183.13-56.02-186-58.29-6.84-5.44-7.98-15.39-2.55-22.23,5.43-6.84,15.38-7.98,22.22-2.55.6.47,63.78,49.23,167,51.44,2.28.04,4.55.07,6.8.07,116.58,0,190.68-64.4,208.26-81.46v-160.39c-135.52,79.13-340.77,12.78-350,9.72-8.29-2.74-12.79-11.68-10.05-19.97,2.74-8.3,11.69-12.8,19.98-10.06,2.25.75,226.04,72.97,346.08-21.95,4.76-3.76,11.25-4.47,16.7-1.83,5.46,2.65,8.92,8.17,8.92,14.24v196.71c0,3.89-1.43,7.64-4.02,10.53-3.56,3.99-87.54,96.1-235.66,96.1Z"/>
      <g class="st28">
        <path class="st23" d="M1039.01,2964.28l253.18,27.2c-9.65,41.08-21.71,74.38-37.8,102.18-145.63,2.57-293.04-1.26-365.36-89.05,46.5-20.64,100.48-34.83,149.98-40.33Z"/>
      </g>
      <g class="st28">
        <path class="st23" d="M1866.02,3036.52c-37.72,35.82-87.07,61.29-150.57,72.83-80.58,14.67-119.45-4.75-231.55-13.64-5.26-32.58-1.03-59-1.03-59l252.63-50.81c46.42,9.57,95.45,25.9,130.53,50.61Z"/>
      </g>
      <path class="st10" d="M1684.01,3070.61c-92.49,16.8-123.77-16.33-309.61-15.86-208.27.55-473.11,37.52-473.39-212.81-.2-202.14,150.69-348.56,221.35-458.8,27.05-42.23,48.52-82.36,65.44-118.58,46.46-99.29,58.84-168.65,58.84-168.65l519.93-33.06s20.13,48.4,45.59,124.04c15.97,47.45,34,105.61,50.49,169.32,17.91,69.04,33.93,144.56,43.42,219.89,28.86,228.11-2.02,454.53-222.07,494.51Z"/>
      <g class="st28">
        <path class="st23" d="M1906.07,2576.1c-140.65-13.84-244.25,80.71-422.58,86.24-209.33,6.52-204.79-206.25-204.79-206.25l583.95-99.88c17.91,69.04,33.93,144.57,43.42,219.89Z"/>
      </g>
      <g class="st28">
        <path class="st23" d="M1906.43,2822.84c-21.43,125.27-85.09,222.82-222.42,247.77-92.49,16.8-123.77-16.33-309.61-15.86-208.27.55-473.11,37.52-473.39-212.81-.04-59.59,13.01-114.35,33.3-164.73-3.92,22.58-6.05,45.91-6.01,70.07.28,250.34,265.12,213.37,473.39,212.81,185.84-.48,217.12,32.66,309.61,15.86,100.2-18.19,161.17-75.05,195.14-153.11Z"/>
      </g>
      <path class="st23" d="M1789.27,3022.91c15.04-14.77,28.51-30.22,40.12-46.85,11.54-16.66,21.47-34.25,29.7-52.7,16.67-36.85,26.56-76.84,32.82-117.58,12.34-81.85,7.29-166.65-4.52-249.78-11.96-83.34-30.99-165.84-54-247.18-11.53-40.67-24.11-81.07-37.67-121.14-13.57-39.97-28.03-80.01-43.76-118.76l15.61,9.71-519.91,33.06,14.56-13.01c-2.26,11.43-4.78,21.62-7.67,32.17-2.84,10.45-5.94,20.78-9.23,31.04-6.67,20.48-13.88,40.75-22.01,60.62-15.96,39.89-34.84,78.5-55.77,115.91-5.4,9.26-10.54,18.67-16.15,27.8l-16.96,27.34c-11.82,18.21-24.34,35.55-36.94,52.66-25.25,34.14-50.71,67.48-74.13,101.99-23.43,34.45-44.94,69.98-62.31,107.26-17.41,37.22-30.66,76.18-37.94,116.21-6.97,39.95-7.35,81.52-.85,120.12,3.47,19.29,8.82,37.93,16.97,55.46,7.97,17.69,19.02,33.95,32.21,50.32l.08.1c1.87,2.32,1.5,5.71-.82,7.58-1.67,1.34-3.89,1.53-5.7.67-20.09-9.58-37.74-25.4-50.46-44.57-6.59-9.47-11.7-19.88-15.84-30.54-4.38-10.64-7.16-21.69-9.62-32.75-4.34-22.2-5.24-44.68-4.23-66.59.87-21.95,3.24-43.81,7.12-65.38,7.84-43.14,22.06-84.77,40.42-124.02,18.33-39.32,40.75-76.28,64.81-111.64,24.03-35.4,49.86-69.21,74.83-102.98,12.44-16.9,24.64-33.82,35.82-51.04l16.43-26.49c5.45-8.85,10.43-17.99,15.66-26.97,20.3-36.28,38.61-73.72,54.03-112.27,7.86-19.21,14.81-38.77,21.22-58.44,3.16-9.85,6.13-19.75,8.83-29.68,2.71-9.81,5.21-20.15,7.06-29.43l.06-.3c1.43-7.19,7.52-12.26,14.51-12.7l519.91-33.06h.14c6.88-.45,13,3.66,15.47,9.71,16.28,40.11,30.72,80.17,44.51,120.77,13.73,40.55,26.46,81.44,38.14,122.64,23.31,82.41,42.66,166.14,54.89,251.33,6.09,42.59,10.23,85.54,11.86,128.78.91,21.61.91,43.31.17,65.04-.77,21.73-2.25,43.52-5.24,65.24-6.03,43.34-17.53,86.79-38.2,126.57-20.52,39.53-52.21,74.91-91.97,94.39-2.65,1.3-5.84.2-7.14-2.44-1.03-2.12-.54-4.58,1.05-6.15l.04-.05Z"/>
      <path class="st23" d="M1199.82,3051.8c28.16-4.22,56.15-6.74,84.29-8.89,28.13-2,56.38-3.13,84.82-3.02,14.22.05,28.48.36,42.72,1.21,7.12.4,14.24.79,21.36,1.33,7.11.62,14.22,1.33,21.32,2.1,28.38,3.18,56.64,8.03,84.17,15.6h.05c2.68.75,4.26,3.53,3.52,6.21-.62,2.25-2.68,3.72-4.91,3.7l-84.26-.87-41.89.02-41.91.51c-28,.42-56.15.76-84.44-.12-28.27-1.02-56.72-2.69-84.98-7.78-2.75-.5-4.58-3.13-4.09-5.89.39-2.19,2.16-3.8,4.24-4.11Z"/>
      <path class="st22" d="M949.12,350c-26.67,57.3-1.85,412.54,227.47,766.38,81.68,126.08,189.38,251.94,329.89,364.12l130.19-110.95c6.48,1.35-11.83-80.62-41.35-178.42-23.88-78.96-55.1-168.22-86.59-232.37C1234.22,399.81,1001.75,237,949.12,350Z"/>
      <path class="st23" d="M1506.46,1496.3c-3.46,0-6.94-1.13-9.86-3.45-288.4-230.15-429.96-509.51-497.93-703.33-75.14-214.28-85.47-399.83-63.89-446.17,12.75-27.36,35.57-42.6,64.26-42.89.3,0,.6,0,.89,0,56.24,0,131.81,54.49,218.65,157.66,97.19,115.48,202.42,286.2,304.31,493.69,29.83,60.74,64.11,154.27,94.04,256.58,11.75,40.15,21.94,78.77,28.71,108.74,11.21,49.66,9.04,55.6,4.25,61.82-3.88,5.04-10.14,7.4-16.35,6.14-8.56-1.72-14.11-10.06-12.39-18.62.21-1.07.53-2.09.94-3.06-2.36-33.52-62.11-264.29-127.59-397.65-213.93-435.65-406.09-633.66-494.53-633.66-.2,0-.4,0-.6,0-16.76.17-28.17,7.99-35.91,24.61-13.48,28.95-13.93,197.09,65.06,422.35,66.59,189.9,205.28,463.61,487.81,689.07,6.83,5.45,7.94,15.4,2.5,22.23-3.13,3.91-7.73,5.95-12.37,5.95Z"/>
      <path class="st0" d="M1452.43,1257.62c-19.87-1.94-45.11-3.51-73.39-3.19-9.93.11-19.33-4.42-25.34-12.33-21.62-28.46-77-106.06-152.07-245.49-109.56-203.46-174.25-444.59-132.95-466.78,62.77-33.72,306.95,306.86,416.67,687.87,6.11,21.22-10.94,42.06-32.92,39.91Z"/>
      <g class="st28">
        <path class="st23" d="M1068.68,529.85c-8.46,4.54-12.47,18.34-12.57,39.1,82.08,20.56,297.59,337.43,398.82,688.8,20.78.44,36.31-19.65,30.43-40.07-109.76-380.98-353.92-721.57-416.68-687.83Z"/>
      </g>
      <path class="st23" d="M1455.46,1270.27c-1.41,0-2.83-.07-4.25-.21h0c-24-2.34-48.23-3.41-72.03-3.13-.17,0-.34,0-.5,0-13.67,0-26.7-6.43-34.94-17.28-20.71-27.26-77.09-105.91-153.12-247.12-94.87-176.19-163.27-396.55-143.5-462.31,3.09-10.28,8.35-17.48,15.65-21.4,9.95-5.34,22.09-5.06,36.08.83,90.97,38.33,298.38,346.88,398.51,694.6,4.04,14.03.88,29.1-8.44,40.31-8.33,10.01-20.6,15.71-33.46,15.71ZM1386.47,1241.89c22.25,0,44.81,1.1,67.18,3.29h0c6.2.63,12.06-1.8,16.06-6.61,4.08-4.91,5.41-11.25,3.64-17.4-96.6-335.47-299.67-642.87-384.2-678.48-6.49-2.74-11.67-3.4-14.55-1.84-.69.37-2.21,2.17-3.54,6.57-15.76,52.42,43.88,261.84,141.57,443.27,75.2,139.67,130.67,217.06,151.02,243.85,3.57,4.7,9.22,7.44,15.24,7.4,2.52-.03,5.04-.04,7.57-.04Z"/>
      <path class="st23" d="M868.27,1770.58c-7.98,0-14.84-6.02-15.71-14.14-.15-1.45-.1-2.73.01-3.71.35-7.7.81-14.76,1.41-21.55l.12-2.2c9.2-109.89,43.05-216.2,97.92-307.9,4.48-7.49,14.19-9.94,21.69-5.45,7.49,4.48,9.93,14.2,5.45,21.69-52.41,87.58-84.75,189.19-93.51,293.84l-.1,2c-.01.18-.02.35-.04.53-.59,6.64-1.04,13.59-1.38,21.25-.01.3-.03.59-.06.88-.5,7.52-6.34,13.83-14.1,14.66-.57.06-1.14.09-1.71.09Z"/>
      <path class="st23" d="M868.22,1772.26c-.53,0-1.07-.02-1.61-.08-8.61-.87-14.9-8.48-14.18-17.06.01-.32.02-.61.04-.89.02-.65.07-1.23.13-1.73l1.38-21.21c.56-8.72,8.14-15.32,16.81-14.76,8.72.57,15.33,8.09,14.76,16.81l-1.42,21.94c-.02.21-.03.43-.06.65-.01.15-.02.3-.04.45,0,.41-.03,1.03-.09,1.67-.82,8.15-7.7,14.23-15.72,14.23ZM884.02,1753.07s0,.02,0,.02c0,0,0-.02,0-.02Z"/>
      <g class="st28">
        <path class="st23" d="M1812.16,2186.89c-57.93,26.53-131.87,51.4-229.34,74.65-142.15,33.85-284.74,27.12-395.02,3,46.46-99.29,58.84-168.65,58.84-168.65l519.93-33.06s20.13,48.4,45.59,124.04Z"/>
      </g>
      <path class="st16" d="M133.39,1102.73c27.45,63.1,369.96,322.35,832.19,326.48-5.01,8.36-9.82,16.81-14.39,25.36-45.05,83.32-73.07,177.4-81.26,275.27l-.16,2.44c-.16,3.7-.61,11.46-1.45,21.97-.03.15-.06.3,0,.53-3.55,43.59-14.19,133.98-43.93,185.44-43.68,75.45,50.12,66.96,82.1,61.8,2.62-.44,4.38,3.15,2.41,4.99-24.63,22.74-56.79,83.54-13.76,100.3,33.89,13.17,44.24,2.27,125.62,46.8l6.8,3.67c93.01,59.3,215.73,77.13,331.12,71.59,202.92-9.8,361.37-63.06,361.37-63.06,110.02-35.99,220.4-92.29,288.62-179.75l5.11-5.65c62.17-69.54,75.43-62.84,103.05-86.74,35.06-30.36-15.18-76.85-45.95-89.87-2.46-1.05-1.97-5.06.61-5.56,31.77-5.94,123.11-29.7,57.12-86.05-45.16-38.5-85.05-120.49-102.6-160.29l-.22-.47c-.24-.58-.45-1.1-.69-1.68-2.19-5.53-4.5-10.97-6.98-16.35l5.1,12.1c-2.3-5.23-4-9.34-5.1-12.1-.22-.47-.39-.87-.52-1.27-.34-.6-.5-1.11-.67-1.56-.07-.17-.18-.41-.23-.63-114.2-256.54-371.63-428.33-655.47-384.57-52.3,10.28-101.37,27.1-146.68,49.73-93.59-53.89-214.81-97.11-254.41-108.02-499.93-137.6-774.96-114.82-824.29-37.31-9.98,15.56-10.79,33.35-2.45,52.47Z"/>
      <g class="st28">
        <path class="st23" d="M133.39,1102.73c27.45,63.1,369.96,322.35,832.19,326.48-5.01,8.36-9.82,16.81-14.39,25.36l43.35-40.02c7.21-6.66,2.39-18.74-7.42-18.53-49.94,1.06-167.31-6.1-390.35-66.81-284.44-77.54-429.33-239.83-460.92-278.95-9.97,15.56-10.78,33.35-2.45,52.47Z"/>
      </g>
      <g class="st28">
        <path class="st23" d="M821.96,1944.66c-37.54,70.65,53.21,62.4,84.52,57.37,2.62-.44,4.38,3.15,2.41,4.99-24.63,22.74-56.79,83.54-13.76,100.3,33.89,13.17,44.24,2.27,125.62,46.8l6.8,3.67c93.01,59.3,215.73,77.13,331.12,71.59,202.92-9.8,361.37-63.06,361.37-63.06,110.02-35.99,220.4-92.29,288.62-179.75l5.11-5.65c3.54-3.98,6.98-7.72,10.2-11.19-66.83,60.84-287.99,199.46-613.02,206.89-252.87,5.79-429.69-81.53-459.62-102.28-69.78-48.38,35.35-86.53,28.38-108.39-11.9-37.28-115.78-10.29-157.73-21.29Z"/>
      </g>
      <path class="st23" d="M1358.91,2234.63c-28.71,3.58-57.74,5.08-86.84,4.67-29.1-.29-58.28-2.86-87.23-7.57-14.49-2.29-28.88-5.37-43.21-8.8-14.25-3.76-28.45-7.86-42.41-12.86-27.97-9.8-55.12-22.5-80.56-38.4l1.09.64c-11.4-5.91-22.12-11.7-33.19-17.09-11.02-5.27-22.09-10.24-33.17-14.24-11.18-4.06-21.79-6.88-34.12-9.33-6.22-1.28-13.12-2.81-19.92-4.93-3.43-1-6.75-2.27-10.1-3.48-3.91-1.57-8.05-3.54-11.94-6.3-3.94-2.63-7.57-6.23-10.7-10.18-2.98-4.1-5.38-8.64-6.89-13.28-2.97-9.28-3.07-18.33-1.96-26.27,2.31-16.02,8.3-29.25,15.4-41.55,3.6-6.13,7.61-11.95,12.07-17.55,2.21-2.81,4.6-5.54,7.13-8.23,1.29-1.34,2.58-2.68,3.99-3.99l1.04-.99c.59-.54-.69.58-1.22,1.32-.64.8-1.28,1.76-1.73,2.74-1.96,4.08-1.6,8.15-.47,11.01,1.18,2.9,3.3,5.67,7.2,7.46,1.91.87,4.21,1.29,6.28,1.2.52-.02,1.04-.07,1.55-.16.12-.02-.14.02-.19.03l-.62.09-4.97.71c-3.33.45-6.66.83-10,1.16-6.69.65-13.43,1.07-20.27,1.17-13.7.07-27.75-.48-43.04-5.54-7.53-2.69-15.88-6.58-22.83-14.49-3.52-3.77-6.15-8.67-7.94-13.6-.78-2.46-1.38-5-1.79-7.47-.2-2.38-.57-4.94-.45-7.19.18-9.28,2.43-17.22,5.23-24.14,1.34-3.58,2.97-6.78,4.55-10.07l4.81-8.89c5.64-9.78,10.07-20.87,14.09-32.1,7.93-22.61,13.44-46.67,17.71-70.95,4.19-24.33,7.24-49.01,9.24-73.73l.04,3.01c-.17-1.83-.07-3.77.3-5.57l-.31,2.09,1.36-20.9c.49-7.86,1.37-14.83,2.04-22.28l2.69-21.74,3.35-21.63c4.92-28.77,11.57-57.25,19.91-85.23,16.67-55.96,40.14-109.94,70.11-160.16l13.43,23.94c-44.29-.64-88.54-3.32-132.55-8.15-44.01-4.92-87.7-12.35-130.98-21.59-86.58-18.48-171.15-45.87-252.49-80.7-81.26-35.01-159.55-77.24-231.8-129.34-17.96-13.21-35.56-26.97-52.42-42.04-4.21-3.77-8.42-7.54-12.47-11.61l-6.13-6-5.96-6.37c-4.02-4.12-7.77-8.94-11.58-13.65l-5.48-7.82c-1.72-3.07-3.58-6.37-5-9.49-2.55-6.01-4.51-12.48-5.7-19.3-1.16-6.83-1.24-14.1-.2-21.24,1.98-14.49,9.55-27.52,18.54-37.22,9.11-9.76,19.59-16.91,30.22-22.75,10.69-5.75,21.65-10.19,32.68-13.9,22.08-7.38,44.43-11.76,66.74-14.98,22.32-3.18,44.65-4.85,66.92-5.8,44.54-1.74,88.88-.16,132.94,3.16,88.14,6.83,175.27,20.61,261.48,37.94,43.12,8.64,85.99,18.35,128.68,28.7,21.34,5.2,42.63,10.58,63.87,16.15l31.82,8.48,15.89,4.32c5.35,1.48,10.97,3.11,16.24,4.79,42.55,13.53,83.59,29.34,124.31,46.69,40.64,17.37,80.64,36.49,119.41,58.6l-14.96-.44c37.37-18.67,76.77-33.23,117.19-43.53,10.21-2.58,20.05-4.88,30.71-6.98,10.5-1.82,20.94-2.92,31.4-4.32,10.4-.79,20.78-1.98,31.2-2.43,10.43-.31,20.85-1.08,31.29-.8,41.73.07,83.53,4.31,124.31,13.26,40.77,8.98,80.57,22.2,118.64,39.2,37.98,17.23,74.16,38.26,108.08,62.39,33.94,24.12,65.27,51.77,94.1,81.7,28.87,29.93,54.84,62.58,77.8,97.19l8.59,13,8.11,13.3c5.54,8.78,10.47,17.93,15.57,26.97,5.14,9.02,9.59,18.41,14.42,27.6,2.33,4.66,4.48,9.49,6.73,14.23l3.33,7.14,1.67,3.57c.3.68.5,1,.88,1.98l.13.33v-.04s-.06-.11-.06-.11c-.04-.07-.09-.13-.16-.19l.64,1.27,8.42,19.9.62,1.9c-.33-1.46-.97-2.94-1.8-4.19l1.43,2.77.77,1.93c3.21,8.12-.77,17.31-8.89,20.53-8,3.17-17.04-.65-20.38-8.53l-.02-.06-9.18-21.69.75,1.54c-.51-1.02-.99-2.06-1.43-3.11l-.62-1.57,29.41-11.64.5,1.26c-.04-.12-.11-.23-.22-.32l.95,2.03,8.04,18.97.69,2.07c-.33-1.46-.97-2.94-1.8-4.19l1.19,2.21c10.01,22.69,21.01,45.01,32.99,66.59,12.07,21.49,25.11,42.44,40.07,61.17,7.51,9.25,15.33,18.27,23.92,25.62l7.55,6.86c2.55,2.66,5.17,5.05,7.59,8.07,4.9,5.69,9.65,12.41,12.73,21.23,3.28,8.62,3.3,20.48-.87,29.82-4.06,9.45-10.56,15.71-16.74,20.66-12.64,9.67-25.64,14.84-38.55,19.3-6.47,2.17-12.95,4.01-19.45,5.61-3.26.79-6.52,1.54-9.8,2.22l-4.92.98-.61.12c.87-.13,1.93-.47,2.85-.87,1.94-.84,3.63-2.16,4.82-3.6,2.36-2.91,3.04-5.67,2.98-8.56-.06-2.83-1.32-6.59-4.64-9.43-.82-.68-1.66-1.23-2.54-1.69l-.68-.31c-.3-.12.01,0-.01,0l.32.14,1.29.58c1.75.75,3.38,1.6,5.04,2.42,3.24,1.71,6.4,3.48,9.39,5.4,6.04,3.8,11.7,7.97,17.08,12.57,10.69,9.24,20.66,19.77,27.93,34.08,3.49,7.18,6.34,15.63,6.29,25.25.08,4.76-.85,9.73-2.37,14.38-1.58,4.68-3.97,8.92-6.69,12.66-2.7,3.65-5.97,6.93-8.92,9.46-2.7,2.27-5.39,4.53-8.25,6.62-5.65,4.25-11.54,7.98-16.94,11.3-10.71,6.51-19.86,12.83-28.94,20.6-9.02,7.67-17.68,16.21-26.19,25.01-8.52,8.92-16.55,18.09-25.17,27.6l.83-.98c-18.56,23.71-39.7,45.22-62.82,64-23.08,18.84-47.9,35.23-73.67,49.48-25.78,14.26-52.55,26.42-79.96,36.51-27.39,10.11-55.33,18.45-83.77,24.43-2.87.6-5.68-1.23-6.28-4.1-.52-2.48.79-4.92,3-5.92,26.19-11.9,52.15-23.69,77.5-36.45,25.31-12.79,50.11-26.26,73.93-41.06,23.8-14.81,46.61-30.93,67.8-48.76,21.12-17.87,40.88-37.23,57.73-58.83l.02-.02c.25-.32.54-.66.81-.96,16.99-18.59,34.8-37.81,55.44-54.87,10.23-8.56,22-16.56,32.96-23.04,5.39-3.26,10.2-6.27,14.68-9.58,2.27-1.61,4.41-3.41,6.58-5.18,1.86-1.58,3.04-2.81,4.14-4.22,1.99-2.77,2.91-5.12,2.92-8.21.07-3.05-1.01-7.01-3.04-11.13-4.14-8.34-11.63-16.82-20.06-23.98-4.22-3.62-8.76-6.95-13.42-9.88-2.32-1.49-4.69-2.81-7.04-4.05-1.17-.57-2.34-1.19-3.5-1.68l-.87-.39-1.44-.68c-1.24-.62-2.41-1.39-3.52-2.34-4.56-3.83-6.43-9.21-6.56-13.6-.1-4.46,1.06-8.83,4.44-12.96,1.71-2.03,4.03-3.85,6.7-5.01,1.28-.58,2.73-.98,3.98-1.23l.55-.1,4.38-.87c2.91-.6,5.8-1.27,8.69-1.97,5.76-1.42,11.45-3.04,16.96-4.89,10.93-3.67,21.64-8.39,29.08-14.2,3.64-2.86,6.32-5.94,7.18-8.22.79-2.29,1.11-3.91,0-7.18-1.06-3.15-3.5-7.12-6.89-10.94-1.49-1.95-3.6-3.81-5.39-5.73l-6.49-5.88c-10.61-9.14-19.4-19.34-27.8-29.68-16.59-20.81-30.3-42.96-42.98-65.51-12.55-22.61-23.93-45.69-34.31-69.25l1.19,2.21c-.98-1.54-1.77-3.31-2.26-5.07l.69,2.07-8.33-19.71.95,2.03c-.51-1.02-.99-2.06-1.43-3.11l-.62-1.57c-3.24-8.11.71-17.31,8.83-20.55,8.11-3.24,17.31.71,20.55,8.83h0s.03.09.03.09l.5,1.26c-.04-.12-.11-.23-.22-.32l.75,1.54,9.2,21.74-29.29,11.94-.76-1.94,1.42,2.77c-.98-1.54-1.77-3.31-2.26-5.07l.62,1.9-7.95-18.78.64,1.27-3.83-8.33-3.12-6.66c-2.11-4.44-4.08-8.89-6.29-13.31-4.62-8.79-8.87-17.78-13.79-26.4-4.88-8.65-9.58-17.4-14.89-25.8l-7.75-12.72-8.21-12.42c-21.95-33.08-46.76-64.28-74.31-92.82-27.52-28.55-57.37-54.91-89.67-77.86-32.28-22.96-66.65-42.93-102.67-59.28-36.12-16.12-73.8-28.63-112.38-37.13-38.58-8.47-78.09-12.47-117.57-12.54-9.88-.28-19.74.47-29.61.75-9.87.42-19.69,1.56-29.54,2.3-9.66,1.3-19.46,2.32-28.96,3.96-9.27,1.83-19.21,4.13-28.69,6.54-38.3,9.76-75.55,23.53-110.86,41.17-4.88,2.44-10.41,2.12-14.83-.36l-.13-.08c-37.24-21.23-76.28-39.93-116.07-56.93-39.75-16.95-80.45-32.59-121.27-45.57-5.15-1.64-10.03-3.05-15.22-4.49l-15.77-4.28-31.57-8.41c-21.07-5.53-42.19-10.86-63.34-16.02-42.32-10.26-84.79-19.88-127.44-28.43-85.27-17.15-171.3-30.72-257.64-37.41-43.15-3.25-86.39-4.77-129.28-3.09-21.42.92-42.77,2.53-63.76,5.52-20.95,3-41.7,7.14-61.13,13.65-19.26,6.43-37.89,15.48-49.7,28.11-11.81,12.59-13.91,27.39-6.76,43.96.89,1.82,1.79,3.26,2.66,5l3.95,5.6c3.09,3.75,6.02,7.64,9.65,11.33l5.24,5.61,5.6,5.46c3.66,3.69,7.59,7.21,11.53,10.73,15.76,14.09,32.64,27.31,49.91,40.01,69.72,50.29,146.32,91.69,225.66,125.85,79.47,34.02,162.14,60.81,246.68,78.84,42.26,9.02,84.91,16.28,127.85,21.08,42.95,4.7,86.1,7.32,129.29,7.95h.07c8.74.13,15.72,7.32,15.6,16.06-.04,2.86-.88,5.59-2.23,7.88-28.57,47.88-50.99,99.44-66.93,152.94-7.97,26.75-14.33,53.99-19.04,81.52l-3.21,20.7-2.57,20.76c-.61,6.76-1.48,13.98-1.89,20.37l-1.42,21.85-.3,2.09c.34-1.45.41-3.05.21-4.54l.04,3.01c-2.07,25.64-5.21,51.16-9.6,76.63-4.56,25.44-10.04,50.88-18.73,76.02-4.43,12.55-9.31,25.08-16.2,37.27l-4.17,7.79c-1.11,2.42-2.38,4.86-3.21,7.21-1.97,4.74-2.89,9.28-2.93,12.63-.01,3.49.75,4.89,2.15,6.59,1.34,1.75,4.77,3.69,9.07,5.12,8.77,2.91,20.39,3.71,31.85,3.42,5.79-.15,11.66-.57,17.54-1.2,2.94-.32,5.88-.69,8.81-1.11l4.4-.68.55-.09.39-.06c.7-.1,1.42-.17,2.14-.2,2.85-.14,5.95.45,8.58,1.63,5.34,2.44,8.59,6.48,10.33,10.85,1.74,4.32,2.08,10.09-.54,15.61-.65,1.31-1.47,2.64-2.37,3.73-.8,1.03-2.33,2.46-2.04,2.18l-.67.65c-.9.84-1.79,1.8-2.68,2.74-1.77,1.94-3.53,3.98-5.2,6.15-3.36,4.31-6.5,8.95-9.25,13.74-5.47,9.51-9.8,19.9-10.97,29-.67,4.54-.29,8.45.59,11.21.96,2.72,2.22,4.45,4.8,6.25,1.27.93,2.86,1.68,4.8,2.48,2.6.92,5.17,1.92,7.82,2.67,5.27,1.63,10.71,2.85,16.86,4.11,12.46,2.43,26.38,5.94,38.88,10.76,25.16,9.46,48.22,21.9,70.24,34.08l.39.22c.24.13.49.28.71.43,11.45,7.47,23.39,14.28,35.7,20.45,6.16,3.08,12.38,6.03,18.76,8.71l9.49,4.17,9.66,3.82c25.8,10.1,52.67,17.84,80,23.97,27.35,6.09,55.2,10.55,83.34,13.55,28.14,2.99,56.51,4.66,85.08,5.58,2.92.08,5.22,2.51,5.14,5.43-.08,2.63-2.1,4.77-4.64,5.1Z"/>
      <path class="st23" d="M1893.96,1807.45c-13.36-20.79-29.08-40.46-47.46-52.82-18.35-12.63-38.7-16.16-60.08-10.64-10.64,2.53-20.51,6.6-28.75,12.78-8.28,6.11-14.93,14.35-19.73,24.12-9.74,19.65-11.46,44.48-7.84,68.95v.11c.44,2.91-1.57,5.62-4.48,6.05-2.35.35-4.57-.91-5.56-2.93-11.81-24.16-15.67-53.66-6.36-81.97,4.71-14.03,13.39-27.38,25.1-37.41,11.69-10.09,25.84-16.57,40-20.21,13.96-3.85,29.92-4.98,45-1.5,15.18,3.2,28.97,10.89,40,20.44,11.17,9.55,19.56,21.16,26.24,33.18,6.53,12.2,11.45,24.69,13.88,38.37.51,2.9-1.42,5.67-4.32,6.18-2.18.39-4.29-.61-5.42-2.36l-.22-.34Z"/>
      <path class="st23" d="M1216.83,1951.38c-3.4-13.47-4.03-26.88-3.08-40.69,1.16-13.7,4.06-27.72,10.32-41.02,6.14-13.23,15.56-25.91,28.09-35.05,12.32-9.35,27.34-14.88,41.65-17.09,14.41-2.49,29.97-2.39,44.77,2.02,14.79,4.34,28.18,12.96,38.24,23.82,20.1,22,28.69,50.48,27.82,77.36-.09,2.94-2.55,5.25-5.49,5.15-2.38-.08-4.34-1.69-4.95-3.86l-.03-.11c-6.74-23.81-18.5-45.74-35.44-59.67-8.38-6.94-17.83-11.72-27.89-13.9-10.05-2.26-20.72-1.92-31.46.14-21.77,3.73-38.87,15.3-50.43,34.35-11.69,18.81-17.95,43.2-21.62,67.64l-.06.4c-.44,2.91-3.15,4.92-6.06,4.48-2.19-.33-3.87-1.95-4.38-3.97Z"/>
      <path class="st23" d="M1556.64,1967.85s4.6,38.67,21.48,63.86c8.66,12.83,20.54,22.15,36.71,20.81,17.62-1.46,29.2-13.4,36.84-28.42,14.77-28.89,14.93-69.38,14.93-69.38l-109.96,13.12Z"/>
      <path class="st20" d="M1578.12,2031.71c8.66,12.83,20.54,22.15,36.71,20.81,17.62-1.46,29.2-13.4,36.84-28.42-8.64-12.94-20.52-22.2-36.65-20.86-17.63,1.46-29.25,13.39-36.9,28.46Z"/>
      <path class="st23" d="M1611.59,2062.56c-52.98,0-64.29-89.64-64.76-93.54-.65-5.42,3.22-10.33,8.64-10.98,5.37-.68,10.34,3.21,10.99,8.63.1.79,10.62,79.06,47.55,76.02,41.15-3.46,42.69-87.16,42.69-88,.02-5.44,4.45-9.84,9.88-9.84h.04c5.46.02,9.86,4.46,9.85,9.92-.01,4.19-1.02,102.61-60.81,107.63-1.39.12-2.75.17-4.08.17Z"/>
      <path class="st21" d="M1686.53,1942.91s9.28,23.8-11.85,36.28c-26.3,15.53-53.82-7.06-60.46-16.92-1.54-2.29-6.09-1.94-6.85.72-4.15,14.47-22.87,44.2-58.2,35.66-13.88-3.36-28.02-18.1-23.45-35.12l60.33-85.86"/>
      <path class="st23" d="M1561.35,2010.04c-4.58,0-9.41-.56-14.5-1.79-10.93-2.64-20.92-10.05-26.71-19.81-5.11-8.6-6.48-18.1-3.96-27.48,1.41-5.27,6.85-8.42,12.11-6.98,5.27,1.41,8.4,6.84,6.99,12.11-1.12,4.16-.49,8.28,1.87,12.25,3.04,5.12,8.68,9.32,14.36,10.69,34.7,8.41,46.27-28.39,46.38-28.77,1.39-4.85,5.53-8.39,10.79-9.22,5.44-.86,10.86,1.38,13.77,5.71,4.44,6.6,26.62,26.1,47.23,13.93,13.26-7.84,8.25-22.59,7.64-24.25-1.89-5.09.66-10.79,5.74-12.72,5.07-1.94,10.74.55,12.71,5.61,4.27,10.94,6.41,35.13-16.03,48.38-26.81,15.82-53.42.71-66.77-12-8.32,16.71-25.95,34.34-51.59,34.34Z"/>
      <path class="st23" d="M1670.55,1865.99c4.16,24.2-19.14,50.23-37.67,66.66-12.83,11.38-31.03,14.51-46.93,8.07-22.95-9.29-53.61-26.04-57.78-50.24-6.76-39.31,135.61-63.8,142.37-24.49Z"/>
      <g class="st26">
        <path class="st6" d="M1631.28,1867.08c.96,5.59-10.65,12.66-19.71,17.28-6.28,3.19-14.68,4.64-21.66,3.73-10.08-1.32-23.39-4.11-24.35-9.7-1.56-9.07,64.16-20.38,65.72-11.3Z"/>
      </g>
      <path class="st23" d="M1607.36,1972.88c-1.71,0-3.45-.44-5.03-1.39-4.61-2.73-6.19-8.62-3.61-13.28.36-.77,6.68-15.05-.1-53.3-.95-5.38,2.63-10.5,8.01-11.45,5.37-1,10.51,2.63,11.46,8.01,8.16,46.04-.41,63.52-2.21,66.56-1.84,3.11-5.14,4.85-8.51,4.85Z"/>
      <path class="st0" d="M1111.85,1294.89c-13.67,13.25-30.38,30.64-47.59,51.39-6.05,7.29-15.14,11.33-24.6,10.81-34.03-1.84-124.61-9.46-272.31-40.91-215.52-45.89-430.74-147.63-421.38-191.35,14.22-66.44,412.48-33.83,757.18,121.49,19.2,8.65,23.83,33.91,8.7,48.56Z"/>
      <g class="st28">
        <path class="st23" d="M345.98,1124.84c-1.92,8.95,5.63,20.38,20.67,33.27,65.59-46.99,428.93-8.16,746.84,135.04,13.14-14.84,8.11-38.52-10.35-46.85-344.7-155.27-742.96-187.91-757.16-121.46Z"/>
      </g>
      <path class="st23" d="M1041.22,1369.63c-.74,0-1.49-.02-2.24-.06-32.63-1.77-124.66-9.32-274.24-41.16-186.75-39.76-389.33-126.12-425.02-181.17-5.65-8.72-7.67-17.14-5.98-25.02,2.29-10.71,10.09-19.5,23.17-26.12,84.09-42.54,436.64-2.98,751.37,138.83,12.87,5.8,22,17.55,24.43,31.44,2.41,13.77-2.14,27.78-12.16,37.49h0c-16.48,15.97-32.18,32.92-46.67,50.39-8.07,9.73-20.14,15.38-32.66,15.38ZM465.23,1104.28c-44.78,0-78.52,4.77-97.03,14.13-5.75,2.91-9.4,6.21-10.01,9.04-.1.48.15,2.53,2.52,6.19,28.33,43.71,217.2,129.43,409.24,170.32,147.85,31.48,238.34,38.92,270.38,40.65,5.44.24,10.78-2.07,14.3-6.31,15.07-18.17,31.39-35.79,48.52-52.39,4.13-4,5.93-9.55,4.93-15.23-1.01-5.8-4.69-10.52-10.08-12.95-231.33-104.24-488.94-153.45-632.78-153.45ZM1111.85,1294.89h.05-.05Z"/>
      <ellipse class="st4" cx="1201.22" cy="2059.55" rx="77.01" ry="41.88" transform="translate(-239.05 159.47) rotate(-6.91)"/>
      <ellipse class="st4" cx="1963.89" cy="1882.38" rx="70.62" ry="38.4" transform="translate(-418.22 568.71) rotate(-14.91)"/>
      <g class="st3">
        <path class="st19" d="M3059.79,2400.74c0,359.64-429.96,676.48-595.85,785.34-39.01,25.6-89.43,25.6-128.44,0-165.9-108.86-595.87-425.7-595.87-785.34,0-191.95,155.59-347.56,347.53-347.56,137.39,0,256.14,79.72,312.56,195.41,56.41-115.7,175.17-195.41,312.53-195.41,191.95,0,347.54,155.61,347.54,347.56Z"/>
      </g>
      <g class="st27">
        <path class="st5" d="M2087.17,2093.19c116.7,0,219.96,57.52,282.99,145.75,14.49,20.28,44.65,20.28,59.14,0,63.02-88.23,166.28-145.75,282.97-145.75,184.84,0,335.9,144.31,346.83,326.41.42-7.93.7-15.88.7-23.85,0-191.95-155.59-347.56-347.53-347.56-137.36,0-256.12,79.72-312.53,195.41-56.41-115.7-175.17-195.41-312.56-195.41-191.95,0-347.53,155.61-347.53,347.56,0,7.97.28,15.92.7,23.85,10.94-182.09,161.99-326.41,346.83-326.41Z"/>
      </g>
      <g class="st28">
        <path class="st23" d="M1974.04,2394.29c-2.66,30.32-13.01,128.28-138.74,137.18-29.15,2.06-52.41,7.09-73.54,13.26-14.18-46.95-22.12-95.06-22.12-143.99,0-53.33,12.02-103.85,33.51-149.02,62.62-19.22,123.89-1.24,159.02,32.55,23.65,22.73,46.06,49.65,41.87,110.03Z"/>
      </g>
      <g class="st28">
        <path class="st23" d="M1949.62,2107.83c-18.14,64.89,85.13,149.54,234.46,136.02s104.66-131.68,49.59-179.73c-34.82-26.87-255.86-63.6-284.05,43.71Z"/>
      </g>
      <g class="st29">
        <g class="st28">
          <path class="st23" d="M1753.65,2302.94c-2.62,17.22-4,34.84-4,52.8,0,359.65,429.96,676.49,595.85,785.35,38.96,25.57,89.36,25.64,128.33.07,94.91-62.27,276.38-192.76,414.23-360.4.01,0,.02-.01.03-.02-64.44,38.88-149.58,61.2-208.01,63.43-567.09,21.69-715.55-236.08-775.66-449.88-70.08-249.29,85.23-327.22,85.23-327.22,0,0-118.6,32.08-188.12,135.71-23.2,33.38-40.62,71.04-50.98,111.53.98-3.81,2.01-7.61,3.11-11.37Z"/>
        </g>
      </g>
      <path class="st23" d="M2399.72,3221.1c-25.38,0-50.75-7.26-72.9-21.79-181.31-118.98-603.01-434.96-603.01-798.56,0-200.36,163-363.37,363.35-363.37,130.05,0,247.26,67.43,312.56,177.88,65.3-110.45,182.5-177.88,312.53-177.88,200.35,0,363.35,163.01,363.35,363.37,0,363.61-421.69,679.59-602.99,798.56-22.14,14.53-47.52,21.79-72.9,21.79ZM2087.16,2069c-182.91,0-331.72,148.82-331.72,331.74,0,150.78,77.88,310.9,231.49,475.94,128.48,138.04,278.98,244.82,357.25,296.18,33.74,22.13,77.35,22.13,111.08,0,78.27-51.36,228.76-158.14,357.23-296.18,153.6-165.03,231.48-325.16,231.48-475.94,0-182.92-148.81-331.74-331.72-331.74-127.91,0-242.22,71.48-298.32,186.53-2.65,5.44-8.17,8.88-14.22,8.88s-11.57-3.45-14.22-8.88c-56.1-115.05-170.42-186.53-298.34-186.53Z"/>
      <g class="st25">
        <path class="st18" d="M2484.01,2311.5c4.29-45.73,53.92-129.58,192.94-147.41,143.32-18.38,288.48,96.77,235.2,124.34-28.02,14.49-109.64-8.57-270.11,41.65-85.58,26.79-163.47,39.57-158.02-18.58Z"/>
      </g>
      <path class="st17" d="M1992.16,2025.06s-36.42,68.82,27.32,123.77c57.64,49.69,158.19,70.96,203.88,49.03,50.23-24.1,74.67-67.44,50.23-112.12-23.55-43.04-204.61-157.68-281.43-60.68Z"/>
      <g class="st28">
        <path class="st23" d="M2223.36,2197.85c-45.71,21.95-146.23.67-203.88-49.03-48.04-41.4-39.19-90.67-31.91-112.46,5.38,14.87,15.18,30.21,31.91,44.64,57.65,49.66,158.17,70.94,203.88,48.99,23.01-11.03,40.61-26.14,50.57-43.53,23.8,44.44-.63,87.43-50.57,111.39Z"/>
      </g>
      <path class="st23" d="M2177.1,2222.27c-54.86,0-123.96-23.52-167.95-61.46-57.97-49.98-45.61-115.49-30.97-143.15.45-.85.98-1.67,1.58-2.42,25.6-32.32,64.18-47.27,111.59-43.27,85.05,7.21,178.06,73.19,196.11,106.18,12.06,22.06,14.7,45.34,7.61,67.35-8.71,27.06-31.75,50.72-64.87,66.62-14.42,6.92-32.78,10.15-53.1,10.15ZM2005.57,2033.61c-4.11,8.82-25.21,60.62,24.23,103.24,54.72,47.17,148.4,65.14,186.71,46.75,25.22-12.1,42.43-29.08,48.45-47.79,4.42-13.74,2.65-28.03-5.25-42.48-12.47-22.79-94.16-83.32-171.03-89.84-36.19-3.06-64.14,7.07-83.1,30.12Z"/>
      <path class="st13" d="M1278.72,2456.08c122.54,283.27,386.2,60.41,513.24,63.86,137.38,3.74,197.91-208.28,108.03-275.69-71.28-53.46-167.5-71.08-261,11.67-33.41,29.57-72.16,41.92-112.35,34.57"/>
      <g class="st28">
        <path class="st23" d="M1791.96,2519.95c-127.05-3.48-390.71,219.42-513.25-63.86l22.3-14.91c129.85,214.95,371.14,16.96,490.95,20.25,81.77,2.21,136.3-72,148.12-146.7,15.42,88.02-44.48,208.03-148.12,205.22Z"/>
      </g>
      <path class="st23" d="M1280.95,2455.12c4.6,5.71,8.83,11.48,12.9,17.27,1.99,2.92,3.96,5.83,6.27,8.52l6.36,8.33c2.08,2.78,4.26,5.49,6.24,8.3l6.7,7.82c4.4,5.23,8.55,10.59,13.42,15.24,18.26,19.58,38.48,36.49,61.97,47.06,23.33,10.8,49.35,15.01,75.77,14.69,26.45-.35,53.38-4.61,80.05-11.5,26.74-6.64,53.28-15.46,79.98-24.66,26.71-9.23,53.5-19.19,81.4-27.78,13.94-4.28,28.2-8.28,43.16-11.08,3.78-.62,7.42-1.51,11.33-1.9l11.64-1.29,21.91-.48c24.83-.84,48.9-10.36,68.19-27.02,38.61-33.42,59.99-88.26,58.22-139.9-.94-25.75-8.57-51.18-24.4-69-2.12-2.06-3.93-4.46-6.25-6.28l-3.41-2.81c-1.1-.95-2.21-1.9-3.69-2.85-5.54-3.74-10.89-7.8-16.71-11.04-11.25-7.21-23.38-12.57-35.56-17.46-24.71-8.74-50.68-12.83-76.27-10.48-25.6,2.27-50.7,10.42-74.18,23.01-11.66,6.42-22.99,13.78-33.86,22l-4.13,3.01-4.48,3.4c-2.97,2.37-6.17,4.5-9.34,6.61-6.45,4.1-13.07,7.95-20.05,11.1-6.89,3.3-14.14,5.85-21.5,7.82-7.32,2.07-14.86,3.33-22.38,3.94-15.06,1.28-30.11-.52-44.06-4.81-1.29-.4-2.01-1.76-1.62-3.05.34-1.1,1.39-1.78,2.49-1.72,28.2,1.69,55.11-5.78,77.27-20.28,5.62-3.48,10.87-7.57,15.94-11.81,2.47-2.22,5.01-4.32,7.38-6.66l3.7-3.47,4.13-3.75,8.3-7.5,4.16-3.76c1.44-1.19,2.96-2.3,4.45-3.45l9.05-6.75,4.55-3.37c1.57-1.06,3.21-2.01,4.82-3.02,25.31-16.61,55.07-28.02,86.18-31.39,31.18-3.28,62.75,2.56,91.27,13.65,14.05,6.07,27.93,12.57,40.61,20.85,6.57,3.82,12.55,8.42,18.73,12.75,1.51,1,3.11,2.34,4.71,3.72l4.76,4.06c3.19,2.69,5.83,5.93,8.74,8.89,11.01,12.46,18.89,27.14,24,42.27,5.13,15.17,7.63,30.82,8.26,46.33,1.13,31.05-4.82,61.63-16.28,90.02-11.69,28.25-29.09,54.69-53.06,75.27-11.94,10.26-25.64,18.84-40.52,24.9-14.86,6.08-30.86,9.52-46.86,10.24l-20.78.59-9.56,1.16c-3.18.32-6.48,1.17-9.71,1.72-13,2.55-26.21,6.25-39.38,10.59-52.8,17.33-105.71,40.7-162.65,55.25-28.43,7.23-58.13,12.34-88.64,12.17-15.21.21-30.62-1.7-45.84-4.55-3.81-.68-7.55-1.9-11.31-2.86-3.73-1.12-7.55-1.89-11.19-3.34l-10.93-4.24-5.44-2.16-5.22-2.67-10.4-5.38c-3.47-1.78-6.57-4.18-9.87-6.24-3.22-2.17-6.53-4.24-9.66-6.52l-8.94-7.39c-6.1-4.8-11.36-10.37-16.51-16.04-5.47-5.4-9.74-11.69-14.24-17.76-2.12-3.12-4.56-6.03-6.36-9.32l-5.54-9.76c-1.85-3.24-3.58-6.54-5.35-9.79-1.54-3.38-2.88-6.85-4.32-10.26-6.17-13.42-9.85-27.79-13.01-42.02-.3-1.33.54-2.64,1.87-2.94.94-.21,1.88.15,2.45.86l.12.16Z"/>
      <g class="st28">
        <path class="st23" d="M2854.17,2400.08c2.66,30.32,13.01,128.28,138.74,137.18,29.15,2.06,52.41,7.09,73.54,13.26,14.18-46.95,22.12-95.06,22.12-143.99,0-53.33-12.02-103.85-33.51-149.02-62.62-19.22-123.89-1.24-159.02,32.55-23.65,22.73-46.06,49.65-41.87,110.03Z"/>
      </g>
      <g class="st28">
        <path class="st23" d="M2878.6,2113.62c18.14,64.89-85.13,149.54-234.46,136.02s-104.66-131.68-49.59-179.73c34.82-26.87,255.86-63.6,284.05,43.71Z"/>
      </g>
      <path class="st12" d="M2836.06,2030.85s36.42,68.82-27.32,123.77c-57.64,49.69-158.19,70.96-203.88,49.03-50.23-24.1-74.67-67.44-50.23-112.12,23.55-43.04,204.61-157.68,281.43-60.68Z"/>
      <g class="st28">
        <path class="st23" d="M2604.86,2203.64c45.71,21.95,146.23.67,203.88-49.03,48.04-41.4,39.19-90.67,31.91-112.46-5.38,14.87-15.18,30.21-31.91,44.64-57.65,49.66-158.17,70.94-203.88,48.99-23.01-11.03-40.61-26.14-50.57-43.53-23.8,44.44.63,87.43,50.57,111.39Z"/>
      </g>
      <path class="st23" d="M2651.12,2228.06c54.86,0,123.96-23.52,167.95-61.46,57.97-49.98,45.61-115.49,30.97-143.15-.45-.85-.98-1.67-1.58-2.42-25.6-32.32-64.18-47.27-111.59-43.27-85.05,7.21-178.06,73.19-196.11,106.18-12.06,22.06-14.7,45.34-7.61,67.35,8.71,27.06,31.75,50.72,64.87,66.62,14.42,6.92,32.78,10.15,53.1,10.15ZM2822.64,2039.4c4.11,8.82,25.21,60.62-24.23,103.24-54.72,47.17-148.4,65.14-186.71,46.75-25.22-12.1-42.43-29.08-48.45-47.79-4.42-13.74-2.65-28.03,5.25-42.48,12.47-22.79,94.16-83.32,171.03-89.84,36.19-3.06,64.14,7.07,83.1,30.12Z"/>
      <path class="st33" d="M3549.5,2461.87c-122.54,283.27-386.2,60.41-513.24,63.86-137.38,3.74-197.91-208.28-108.03-275.69,71.28-53.46,167.5-71.08,261,11.67,33.41,29.57,72.16,41.92,112.35,34.57"/>
      <g class="st28">
        <path class="st23" d="M3036.26,2525.74c127.05-3.48,390.71,219.42,513.25-63.86l-22.3-14.91c-129.85,214.95-371.14,16.96-490.95,20.25-81.77,2.21-136.3-72-148.12-146.7-15.42,88.02,44.48,208.03,148.12,205.22Z"/>
      </g>
      <path class="st23" d="M3547.27,2460.91c-4.6,5.71-8.83,11.48-12.9,17.27-1.99,2.92-3.96,5.83-6.27,8.52l-6.36,8.33c-2.08,2.78-4.26,5.49-6.24,8.3l-6.7,7.82c-4.4,5.23-8.55,10.59-13.42,15.24-18.26,19.58-38.48,36.49-61.97,47.06-23.33,10.8-49.35,15.01-75.77,14.69-26.45-.35-53.38-4.61-80.05-11.5-26.74-6.64-53.28-15.46-79.98-24.66-26.71-9.23-53.5-19.19-81.4-27.78-13.94-4.28-28.2-8.28-43.16-11.08-3.78-.62-7.42-1.51-11.33-1.9l-11.64-1.29-21.91-.48c-24.83-.84-48.9-10.36-68.19-27.02-38.61-33.42-59.99-88.26-58.22-139.9.94-25.75,8.57-51.18,24.4-69,2.12-2.06,3.93-4.46,6.25-6.28l3.41-2.81c1.1-.95,2.21-1.9,3.69-2.85,5.54-3.74,10.89-7.8,16.71-11.04,11.25-7.21,23.38-12.57,35.56-17.46,24.71-8.74,50.68-12.83,76.27-10.48,25.6,2.27,50.7,10.42,74.18,23.01,11.66,6.42,22.99,13.78,33.86,22l4.13,3.01,4.48,3.4c2.97,2.37,6.17,4.5,9.34,6.61,6.45,4.1,13.07,7.95,20.05,11.1,6.89,3.3,14.14,5.85,21.5,7.82,7.32,2.07,14.86,3.33,22.38,3.94,15.06,1.28,30.11-.52,44.06-4.81,1.29-.4,2.01-1.76,1.62-3.05-.34-1.1-1.39-1.78-2.49-1.72-28.2,1.69-55.11-5.78-77.27-20.28-5.62-3.48-10.87-7.57-15.94-11.81-2.47-2.22-5.01-4.32-7.38-6.66l-3.7-3.47-4.13-3.75-8.3-7.5-4.16-3.76c-1.44-1.19-2.96-2.3-4.45-3.45l-9.05-6.75-4.55-3.37c-1.57-1.06-3.21-2.01-4.82-3.02-25.31-16.61-55.07-28.02-86.18-31.39-31.18-3.28-62.75,2.56-91.27,13.65-14.05,6.07-27.93,12.57-40.61,20.85-6.57,3.82-12.55,8.42-18.73,12.75-1.51,1-3.11,2.34-4.71,3.72l-4.76,4.06c-3.19,2.69-5.83,5.93-8.74,8.89-11.01,12.46-18.89,27.14-24,42.27-5.13,15.17-7.63,30.82-8.26,46.33-1.13,31.05,4.82,61.63,16.28,90.02,11.69,28.25,29.09,54.69,53.06,75.27,11.94,10.26,25.64,18.84,40.52,24.9,14.86,6.08,30.86,9.52,46.86,10.24l20.78.59,9.56,1.16c3.18.32,6.48,1.17,9.71,1.72,13,2.55,26.21,6.25,39.38,10.59,52.8,17.33,105.71,40.7,162.65,55.25,28.43,7.23,58.13,12.34,88.64,12.17,15.21.21,30.62-1.7,45.84-4.55,3.81-.68,7.55-1.9,11.31-2.86,3.73-1.12,7.55-1.89,11.19-3.34l10.93-4.24,5.44-2.16,5.22-2.67,10.4-5.38c3.47-1.78,6.57-4.18,9.87-6.24,3.22-2.17,6.53-4.24,9.66-6.52l8.94-7.39c6.1-4.8,11.36-10.37,16.51-16.04,5.47-5.4,9.74-11.69,14.24-17.76,2.12-3.12,4.56-6.03,6.36-9.32l5.54-9.76c1.85-3.24,3.58-6.54,5.35-9.79,1.54-3.38,2.88-6.85,4.32-10.26,6.17-13.42,9.85-27.79,13.01-42.02.3-1.33-.54-2.64-1.87-2.94-.94-.21-1.88.15-2.45.86l-.12.16Z"/>
    </g>
  </g>
  <g>
    <path class="st37" d="M3447.98,1159.36c24.47-28.71,28.17-63.85,20.99-98.34-6.93-33.22-23.99-65.84-42.39-91.58-13.46-18.84-29.58-42.36-52.75-49.46-25.43-7.8-50.79,8.47-68.13,25.53-29.2,28.73-47.89,65.8-60.36,105.18-2.71,8.57-5.12,17.25-7.29,25.97-10.2-3.63-21.76-4.74-33.12-3.55-19.14,2-37.75,10.51-48.46,24.46-.45.59-.89,1.19-1.32,1.8-5.96-5.29-12.07-10.43-18.32-15.37-32.41-25.6-68.68-45.81-108.97-53.21-23.93-4.39-54.05-3.63-70.72,17.09-15.19,18.88-15.34,47.39-15.92,70.54-.79,31.63,3.38,68.2,16.28,99.59,13.4,32.59,36.18,59.6,72.54,69.64,35.9,9.92,75.12-2.49,105.06-24.63,10.74-7.94,20.47-17.01,29.49-26.81.13,12.51.34,25.03-.62,37.5-.58,7.53-1.63,15.01-3.11,22.41-12.34,61.48-55,116.61-112.18,142.76,15.04-.73,32.53-1.02,47.57-1.75,10.38-.52,21.31-.91,30.6,3.78,9.5,4.82,15.72,14.22,21.3,23.32,5.58,9.09,11.32,18.65,20.42,24.22,9.1,5.58,22.67,5.47,28.93-3.17,49.34-68.22,57.12-160.77,38.84-246.17-.93-4.37-1.93-8.72-2.99-13.05,4.06-.94,7.95-2.3,11.64-4.02,1.59,4.32,3.26,8.61,4.99,12.88,32.77,80.95,91.14,153.2,170.25,182,10.03,3.64,21.32-3.89,25.73-13.61,4.41-9.72,3.8-20.85,3.32-31.51-.49-10.66-.61-21.93,4.55-31.25,5.06-9.1,14.33-14.9,23.21-20.3,12.86-7.83,27.5-17.4,40.36-25.24-62.01,10.43-128.25-11.28-172.96-55.25-5.38-5.29-10.44-10.89-15.15-16.81-7.8-9.78-14.64-20.26-21.55-30.69,12.96,3.06,26.11,5.11,39.45,5.65,37.2,1.53,76.64-10.2,100.79-38.55Z"/>
    <path class="st24" d="M3130.3,1106.48c-14.43-7.98-28.87-15.96-43.3-23.93-19.96-11.03-41.91-21.57-65.17-22.41-21.47-.78-45.18,14.25-35.91,38.52,6.7,17.56,25.1,26.64,41.42,32.33,33.39,11.64,69,16.79,104.32,15.26,1.22,6.04,2.71,12.1,4.21,18.15-8.69,2.37-17.51,4.26-26.45,5.6-23.55,3.53-46.69,2.71-70.29.29-1.3-.13-1.84,1.77-.48,2.04,31.83,6.25,66.05,3.79,97.89-5.25,2.65,10.72,5.2,21.42,6.12,32-5.49,4.08-11.09,8.03-16.79,11.84-18.23,12.18-37.72,22.7-59.67,25.92-.89.13-.9,1.52.04,1.44,21.57-1.88,40.67-11.91,58.51-23.61,6.16-4.04,12.2-8.27,18.12-12.66.79,13.59-1.34,26.95-9.62,39.85-13.31,20.75-38.54,31.36-62.24,34.45-29.81,3.88-60.15-7.81-83.69-26.5-11.45-9.07-21.46-19.86-29.82-31.83,13.4,32.59,36.18,59.6,72.54,69.64,35.9,9.92,75.12-2.49,105.06-24.63,10.74-7.94,20.47-17.01,29.49-26.81,6.13-6.66,11.92-13.67,17.47-20.89-7.36-5.18-13.87-11.7-19.19-18.94-1.53-2.08-2.99-4.28-4.37-6.58-.41-.68-.81-1.38-1.21-2.08-4.12-7.29-7.47-15.48-9.77-24.04-.23-.85-.45-1.7-.65-2.55-1.25-5.16-2.12-10.43-2.54-15.7-.82-10.14,0-20.27,2.86-29.59,1.8-5.88,4.42-11.43,7.96-16.46-5.96-5.29-12.07-10.43-18.32-15.37-3.04,7.21-5.23,14.78-6.53,22.49Z"/>
    <path class="st24" d="M3462.14,1104.1c-9,28.68-27.56,55.38-54.41,68.88-21.36,10.74-48.19,16.11-70.86,6.4-14.09-6.04-23.35-15.91-30.32-27.6,7.36.32,14.73.43,22.1.31,21.33-.32,42.76-2.74,61.68-13.28.82-.46.04-1.61-.77-1.21-19.98,9.64-42.02,11.87-63.94,12.01-6.85.04-13.7-.09-20.54-.38-5.17-9.27-9.06-19.56-12.88-29.92,31.42-10.37,61.13-27.54,83.98-50.57.97-.98-.54-2.25-1.54-1.42-18.18,15.23-36.87,28.9-58.35,39.19-8.15,3.91-16.52,7.29-25.04,10.2-2.15-5.85-4.31-11.71-6.7-17.39,30.1-18.55,56.69-42.79,77.8-71.16,10.32-13.86,20.45-31.7,16.15-50-5.95-25.3-34-24.44-51.34-11.75-18.79,13.75-31.04,34.78-41.38,55.11-7.47,14.7-14.94,29.4-22.42,44.1-5.4-5.66-11.47-10.69-18.03-14.96-2.71,8.57-5.12,17.25-7.29,25.97,5.65,2.01,10.89,4.8,15.45,8.39,1.64,1.3,3.2,2.7,4.65,4.2,5.04,5.23,9.47,11.23,13.19,17.72,2.53,4.42,4.74,9.08,6.59,13.87.31.81.61,1.62.9,2.44,2.84,7.97,4.7,16.28,5.44,24.54.07.79.13,1.59.18,2.38.19,2.95.23,5.89.12,8.8-.33,8.69-2.12,17.17-5.18,25.03,9.35,3.16,18.8,5.96,28.34,8.22,12.96,3.06,26.11,5.11,39.45,5.65,37.2,1.53,76.64-10.2,100.79-38.55,24.47-28.71,28.17-63.85,20.99-98.34-.2,14.6-2.44,29.15-6.83,43.08Z"/>
    <path class="st2" d="M3244.99,1222.03c1.59,4.32,3.26,8.61,4.99,12.88,19.54-7.36,41.64-8.62,62.33-4.83,11.06,2.04,21.78,5.37,32.14,9.67-5.38-5.29-10.44-10.89-15.15-16.81-7.8-9.78-14.64-20.26-21.55-30.69-9.55-2.25-18.99-5.06-28.34-8.22-6.49,16.71-18.64,30.65-34.41,37.99Z"/>
    <path class="st2" d="M3301.09,1278.03c-.53-1.18-2.43-.69-1.98.61,16.08,46.79,54.36,86.43,97.76,108.92,1.03.53,1.86-1.03.84-1.58-21.38-11.58-40.72-26.64-57.04-44.67-17.07-18.87-29.16-40.22-39.58-63.27Z"/>
    <path class="st2" d="M3329.33,1301.74c.6.7,1.82-.31,1.25-1.05-7.9-10.28-14.74-21.08-20.07-32.91-.52-1.17-2.45-.6-1.93.59,5.37,12.11,12.1,23.31,20.75,33.37Z"/>
    <path class="st2" d="M3464.71,1314.07c1.3,0,1.24-2-.06-2.02-29.36-.39-56.13-10.38-80.17-26.86-.77-.52-1.66.75-.94,1.33,22.71,18.37,52.18,27.39,81.17,27.55Z"/>
    <path class="st2" d="M3182.06,1215.3c-5.55,7.22-11.34,14.22-17.47,20.89.13,12.51.34,25.03-.62,37.5-.58,7.53-1.63,15.01-3.11,22.41,6.16-9.37,13.16-18.14,21.18-26.03,15-14.74,34-26.1,54.3-30.97-.93-4.37-1.93-8.72-2.99-13.05-7.2,1.67-14.93,2.05-23.06.87-10.21-1.49-19.78-5.67-28.23-11.61Z"/>
    <path class="st2" d="M3218.22,1303.46c4.3,24.93,6.28,49.39,2.73,74.58-3.39,24.09-10.95,47.4-22.16,68.98-.53,1.03,1.03,1.86,1.58.84,23.31-42.97,32.77-97.26,19.83-145.01-.36-1.32-2.2-.67-1.98.61Z"/>
    <path class="st2" d="M3208.14,1338.94c1.53-13.18.81-26.23-1.54-39.26-.23-1.28-2.15-.67-1.93.59,2.22,12.78,2.62,25.57,1.85,38.51-.05.92,1.51,1.09,1.62.16Z"/>
    <path class="st2" d="M3153.2,1356.18c-10.66,27.13-27.21,50.42-51.3,67.21-1.06.74,0,2.44,1.08,1.7,23.91-16.39,43.25-40.39,51.74-68.34.27-.88-1.18-1.45-1.53-.57Z"/>
    <path class="st2" d="M3087,1082.55c-19.96-11.03-41.91-21.57-65.17-22.41-21.47-.78-45.18,14.25-35.91,38.52,6.7,17.56,25.1,26.64,41.42,32.33,33.39,11.64,69,16.79,104.32,15.26,4.23-.18,8.46-.46,12.68-.84-.82-10.14,0-20.27,2.86-29.59-5.63-3.11-11.26-6.23-16.9-9.34-14.43-7.98-28.87-15.96-43.3-23.93Z"/>
    <path class="st2" d="M3135.87,1164.4c-8.69,2.37-17.51,4.26-26.45,5.6-23.55,3.53-46.69,2.71-70.29.29-1.3-.13-1.84,1.77-.48,2.04,31.83,6.25,66.05,3.79,97.89-5.25,3.7-1.05,7.37-2.19,11-3.42-.23-.85-.45-1.7-.65-2.55-3.64,1.18-7.31,2.28-11.01,3.28Z"/>
    <path class="st2" d="M3125.86,1210.92c-18.23,12.18-37.72,22.7-59.67,25.92-.89.13-.9,1.52.04,1.44,21.57-1.88,40.67-11.91,58.51-23.61,6.16-4.04,12.2-8.27,18.12-12.66,5.32-3.95,10.53-8.03,15.64-12.24-.41-.68-.81-1.38-1.21-2.08-4.8,3.89-9.68,7.69-14.64,11.37-5.49,4.08-11.09,8.03-16.79,11.84Z"/>
    <path class="st2" d="M3258.16,1089.25c5.04,5.23,9.47,11.23,13.19,17.72,4.47-2.43,8.87-4.98,13.2-7.65,30.1-18.55,56.69-42.79,77.8-71.16,10.32-13.86,20.45-31.7,16.15-50-5.95-25.3-34-24.44-51.34-11.75-18.79,13.75-31.04,34.78-41.38,55.11-7.47,14.7-14.94,29.4-22.42,44.1-3.29,6.47-6.58,12.94-9.86,19.41,1.64,1.3,3.2,2.7,4.65,4.2Z"/>
    <path class="st2" d="M3277.94,1120.84c.31.81.61,1.62.9,2.44,4.48-1.19,8.94-2.51,13.36-3.97,31.42-10.37,61.13-27.54,83.98-50.57.97-.98-.54-2.25-1.54-1.42-18.18,15.23-36.87,28.9-58.35,39.19-8.15,3.91-16.52,7.29-25.04,10.2-4.4,1.5-8.84,2.87-13.31,4.13Z"/>
    <path class="st2" d="M3284.46,1150.21c7.35.73,14.72,1.26,22.09,1.58,7.36.32,14.73.43,22.1.31,21.33-.32,42.76-2.74,61.68-13.28.82-.46.04-1.61-.77-1.21-19.98,9.64-42.02,11.87-63.94,12.01-6.85.04-13.7-.09-20.54-.38-6.95-.3-13.88-.77-20.81-1.41.07.79.13,1.59.18,2.38Z"/>
    <path class="st36" d="M3197.69,1087.8c-10.24,3.14-16,14-12.85,24.24.18.6.39,1.18.63,1.74-1.37.2-2.73.5-4.08.91-17.18,5.27-25.85,26.67-19.37,47.78,6.48,21.12,25.66,33.96,42.84,28.69,17.18-5.27,25.85-26.67,19.37-47.78-2.44-7.95-6.68-14.72-11.93-19.8,8.19-4.22,12.44-13.82,9.64-22.93-3.14-10.24-14-16-24.24-12.85Z"/>
  </g>
  <path class="st7" d="M1805.72,1044.17l1.06,1.33c288.09-116.3,399.09-385.89,272.23-502.19-126.87-116.3-272.23,42.27-272.23,42.27h-1.06s-145.37-158.57-272.23-42.27c-126.86,116.28-15.85,384.56,272.23,500.85Z"/>
  <path class="st7" d="M4359.56,1980.97l1.06,1.33c288.09-116.3,399.09-385.89,272.23-502.19-126.87-116.3-272.23,42.27-272.23,42.27h-1.06s-145.37-158.57-272.23-42.27c-126.86,116.28-15.85,384.56,272.23,500.85Z"/>
</svg>